<ttFont>
          <CharString index="0">
            -48 -32 -51 -4 -31 -31 -41 -55 -14 -27 -66 -54 rrcurveto
            -1 -1 1 -5 -59 callsubr
            106 37 81 90 vhcurveto
            18 20 46 -9 callsubr
            return
          </CharString>
          <CharString index="1">
            85 503 165 rmoveto
            -99 callgsubr
            -61 9 -33 27 -1 vhcurveto
            29 -1 46 41 34 41 rrcurveto
            0 35 39 12 18 vhcurveto
            -177 196 -83 callsubr
            return
          </CharString>
          <CharString index="2">
            rmoveto
            -106 callgsubr
          </CharString>
          <CharString index="3">
            51 rmoveto
            -82 callgsubr
            78 hlineto
            38 31 18 36 76 hvcurveto
            0 -16 -2 -24 -22 -26 1 7 -27 vhcurveto
            -191 649 -85 -78 rlineto
            -176 -453 -46 -86 -59 callsubr
            -18 -34 -23 -28 vhcurveto
            -53 -30 rlineto
            -23 callsubr
            10 258 -56 callsubr
            return
          </CharString>
          <CharString index="4">
            724 843 61 rmoveto
            -1 1 -1 1 2 vvcurveto
            94 187 80 189 60 207 30 11 40 26 29 20 rrcurveto
            -3 -13 -13 callsubr
            12 13 -1 12 hhcurveto
            1 -5 0 -5 -6 vvcurveto
            -71 -54 -146 0 vhcurveto
            0 -63 -171 -68 -149 vhcurveto
            -74 176 -55 185 -61 211 21 12 23 15 18 13 rrcurveto
            -3 -13 -103 -4 -36 hhcurveto
            0 -37 -82 callsubr
            8 7 0 -1 8 hvcurveto
            3 -67 -68 -183 -59 callsubr
            -69 -182 -62 -113 vhcurveto
            -170 554 28 13 30 21 24 16 rlinecurve
            -92 callsubr
            9 8 0 -1 9 hvcurveto
            82 -217 56 -225 77 -227 132 177 75 216 78 217 53 -202 72 -202 81 -201 return
          </CharString>
          <CharString index="5">
            195 -104 callsubr
            return
          </CharString>
          <CharString index="6">
            232 -102 callsubr
            return
          </CharString>
          <CharString index="7">
            106 378 441 rmoveto
            -10 -68 -7 -68 -4 -74 -34 -90 -43 -50 -39 -26 rrcurveto
            -7 -11 -10 -3 -10 hhcurveto
            -32 -22 36 48 17 callgsubr
            63 15 176 61 vvcurveto
            39 -14 16 -21 -43 -47 -47 -29 -32 vhcurveto
            13 24 callsubr
            19 10 -15 -27 -1 hvcurveto
            -2 -52 -17 -154 -87 vvcurveto
            -62 16 -43 36 -7 vhcurveto
            44 -7 58 39 81 76 rrcurveto
            0 21 20 21 28 vhcurveto
            -1 -40 0 -43 -44 vvcurveto
            -60 0 -58 -4 -49 vhcurveto
            -90 -6 -50 -67 -100 hhcurveto
            -40 -37 13 12 -16 hvcurveto
            0 -24 19 24 26 vhcurveto
            -57 -34 -28 -29 0 vvcurveto
            -28 -30 48 -39 61 -1 108 -4 182 107 35 109 rrcurveto
            7 20 1 41 49 vvcurveto
            179 15 173 20 191 vhcurveto
            return
          </CharString>
          <CharString index="8">
            4 378 376 rmoveto
            101 -5 -54 27 -29 27 callgsubr
            -25 -41 -60 hvcurveto
            -81 callsubr
            -65 -20 -177 -94 -65 callgsubr
            70 12 -96 -55 hvcurveto
            return
          </CharString>
          <CharString index="9">
            -79 callsubr
            -61 -7 -61 -4 -63 rlinecurve
            -5 -17 -4 -14 0 vvcurveto
            -24 -87 -57 -83 -54 -5 rrcurveto
            -42 -4 -10 57 63 90 16 89 94 vvcurveto
            20 1 37 -31 return
          </CharString>
          <CharString index="10">
            rmoveto
            10 0 20 -12 -21 -27 -23 -17 -14 vhcurveto
            15 1 2 -71 -44 -15 0 -12 -5 vvcurveto
            9 11 8 13 7 11 14 19 17 80 2 22 rrcurveto
            return
          </CharString>
          <CharString index="11">
            -97 callsubr
            endchar
          </CharString>
          <CharString index="12">
            344 141 90 rmoveto
            9 53 6 182 1 169 110 -201 232 -106 89 -204 rrcurveto
            2 vlineto
            3 9 15 43 39 64 9 191 13 193 1 198 15 7 15 9 18 11 rrcurveto
            3 -22 -19 1 -15 hhcurveto
            -54 -40 -24 -34 -49 hvcurveto
            6 14 22 0 23 hhcurveto
            9 9 0 1 8 hvcurveto
            7 -23 3 -30 -60 vvcurveto
            -133 -2 -135 -10 -140 vhcurveto
            -126 180 -302 170 -15 251 -54 -87 rcurveline
            -144 -2 -143 -3 -147 -21 callsubr
            9 8 -2 -4 -2 -3 -2 -1 rlinecurve
            -42 callsubr
            -7 callgsubr
            return
          </CharString>
          <CharString index="13">
            319 -85 callgsubr
            80 1 105 70 vhcurveto
            68 38 25 34 1 43 rrcurveto
            0 5 42 2 135 vhcurveto
            34 24 -32 -6 -60 0 -29 -4 rlinecurve
            0 -30 -4 -74 -45 vhcurveto
            4 10 14 1 16 hhcurveto
            20 22 -2 -2 18 hvcurveto
            -66 2 -66 -4 -67 vhcurveto
            0 -3 -26 -18 -20 vhcurveto
            -70 -17 -66 -69 callgsubr
            return
          </CharString>
          <CharString index="14">
            278 477 59 rmoveto
            55 91 148 194 110 vvcurveto
            25 -8 22 -18 15 vhcurveto
            -91 -66 rlineto
            20 3 28 -28 -49 vvcurveto
            -67 -78 -126 -55 -84 vhcurveto
            -1 163 -70 126 10 128 -84 -64 rcurveline
            3 -129 -81 -86 -52 -109 -6 170 -25 129 -20 40 rrcurveto
            25 -12 -14 10 -14 hhcurveto
            -31 -52 -66 -25 -21 hvcurveto
            11 14 15 10 13 hhcurveto
            24 21 -33 -116 12 hvcurveto
            0 25 -150 7 -167 vhcurveto
            66 93 20 96 75 78 55 89 rlinecurve
            6 -24 4 -13 0 0 46 -162 -126 vvcurveto
            -10 0 -11 -1 -10 vhcurveto
            return
          </CharString>
          <CharString index="15">
            -55 callgsubr
            -36 -82 callsubr
            return
          </CharString>
          <CharString index="16">
            rmoveto
            -21 -5 -25 -22 -11 -27 -40 44 -38 hhcurveto
            -82 -37 -79 -44 -18 hvcurveto
            23 16 rlineto
            30 61 30 -9 0 vvcurveto
            -3 26 41 -49 43 hhcurveto
            63 31 61 69 19 hvcurveto
            endchar
          </CharString>
          <CharString index="17">
            267 521 524 rmoveto
            119 11 -106 73 -104 -53 -52 -12 -57 hhcurveto
            -14 -14 0 2 -11 hvcurveto
            -95 -57 88 7 rlineto
            -1 -112 -4 -261 -58 callgsubr
            9 59 8 486 vhcurveto
            18 18 1 15 hhcurveto
            66 114 -44 -93 4 hvcurveto
            -106 5 -58 -62 -65 hhcurveto
            -71 -49 rlineto
            23 2 26 -16 0 vvcurveto
            26 -16 163 -189 37 -38 rrcurveto
            -37 38 24 -15 26 hhcurveto
            38 30 27 42 62 hvcurveto
            -4 -9 -17 -4 -17 hhcurveto
            -20 -23 5 14 -18 hvcurveto
            0 -36 26 -230 246 vhcurveto
            60 27 82 49 10 97 rrcurveto
            -4 callgsubr
            return
          </CharString>
          <CharString index="18">
            -24 callgsubr
            -4 -51 -7 -104 -2 -100 -1 -100 19 -31 26 -5 27 -5 47 18 65 64 rrcurveto
            0 40 39 45 60 vhcurveto
            -47 vlineto
            return
          </CharString>
          <CharString index="19">
            -21 -8 -70 -6 -46 1 rrcurveto
            -63 callsubr
            29 -15 callsubr
            return
          </CharString>
          <CharString index="20">
            -54 callsubr
            0 4 43 28 callsubr
            55 2 47 3 23 -4 callsubr
            -11 -20 vhcurveto
            63 44 10 4 0 vvcurveto
            return
          </CharString>
          <CharString index="21">
            296 -46 callgsubr
            32 3 -18 14 -20 hhcurveto
            -11 -12 -4 -8 -9 hvcurveto
            0 -26 -19 -57 -50 vhcurveto
            -6 callgsubr
            -41 callsubr
            return
          </CharString>
          <CharString index="22">
            96 465 206 rmoveto
            7 callgsubr
            81 72 38 78 -40 callsubr
            rrcurveto
            -103 -2 -195 -111 -121 -166 322 8 -159 vvcurveto
            -85 -82 -28 -77 -63 -55 27 17 -13 vhcurveto
            -40 callgsubr
            rrcurveto
            return
          </CharString>
          <CharString index="23">
            -51 callgsubr
            37 -4 31 19 43 30 -80 callgsubr
            return
          </CharString>
          <CharString index="24">
            rmoveto
            -30 -125 -53 -67 -34 callgsubr
            112 34 96 23 132 127 20 30 callgsubr
            31 hvcurveto
            return
          </CharString>
          <CharString index="25">
            0 -61 -71 callsubr
            return
          </CharString>
          <CharString index="26">
            -78 callgsubr
            rrcurveto
            -77 -81 rmoveto
            return
          </CharString>
          <CharString index="27">
            -78 12 -50 26 -1 vhcurveto
            33 -2 50 46 20 19 rrcurveto
            0 20 19 61 54 vhcurveto
            -558 283 rmoveto
            3 2 rlineto
            return
          </CharString>
          <CharString index="28">
            -60 -88 -31 25 callsubr
            -29 -9 -21 20 103 vvcurveto
            108 15 109 24 118 vhcurveto
            -95 -68 -9 return
          </CharString>
          <CharString index="29">
            -77 callsubr
            -238 55 -63 callgsubr
          </CharString>
          <CharString index="30">
            rmoveto
            -76 -52 59 -56 76 53 rlineto
            return
          </CharString>
          <CharString index="31">
            644 671 rmoveto
            -49 callgsubr
            -53 -29 -116 -107 -185 vvcurveto
            return
          </CharString>
          <CharString index="32">
            -66 callgsubr
            18 20 4 7 19 -53 callsubr
            return
          </CharString>
          <CharString index="33">
            -57 callgsubr
            4 10 22 16 -44 hhcurveto
            0 return
          </CharString>
          <CharString index="34">
            44 6 35 2 19 1 -9 -30 -34 -91 -102 -165 -184 305 rcurveline
            22 10 23 14 28 22 -21 -9 -70 -7 16 callsubr
            -45 2 -70 -65 vhcurveto
            31 5 27 4 19 2 return
          </CharString>
          <CharString index="35">
            -105 -24 -39 -37 -31 -46 callsubr
            69 hvcurveto
            -2 -5 -38 -13 -61 hhcurveto
            -11 -11 0 1 -12 hvcurveto
            4 callgsubr
            0 return
          </CharString>
          <CharString index="36">
            -70 callsubr
            hhcurveto
            return
          </CharString>
          <CharString index="37">
            -54 vhcurveto
            2 15 19 1 18 return
          </CharString>
          <CharString index="38">
            -21 -14 -57 -63 -31 hhcurveto
            -21 -9 25 37 17 callgsubr
            54 18 216 2 43 return
          </CharString>
          <CharString index="39">
            rrcurveto
            4 13 14 1 13 hhcurveto
            28 31 -6 -36 4 hvcurveto
            4 -20 -14 -7 -18 -7 -8 -3 -33 -1 -22 16 -24 -44 rcurveline
            62 -11 131 52 -10 73 -4 31 -38 13 -38 -5 -7 -1 -13 -2 -4 -4 return
          </CharString>
          <CharString index="40">
            8 139 rlineto
            38 141 17 40 0 vvcurveto
            20 48 26 33 41 2 rrcurveto
            29 1 14 -24 -33 vvcurveto
            -83 -75 -46 -75 -48 vhcurveto
            31 -19 72 -142 15 -24 rrcurveto
            -17 10 19 -13 21 hhcurveto
            39 40 45 32 34 hvcurveto
            -9 -13 -11 -3 -10 hhcurveto
            -32 -20 37 42 -31 hvcurveto
            0 -39 58 -40 53 vhcurveto
            62 37 92 65 86 vvcurveto
            32 -22 41 -38 -47 -61 -53 -52 -48 vhcurveto
            0 -22 -26 -25 -45 vhcurveto
            return
          </CharString>
          <CharString index="41">
            -18 180 272 rmoveto
            17 73 28 80 27 9 41 12 27 -27 33 4 32 4 37 39 37 37 rrcurveto
            -8 -18 -14 -3 -13 hhcurveto
            -34 -22 19 -8 -28 hvcurveto
            -63 -18 -47 -47 -34 -57 rrcurveto
            23 vlineto
            33 -1 66 -50 -32 -62 -69 -23 -25 vhcurveto
            15 19 17 7 14 hhcurveto
            27 18 -28 -59 -117 -13 -118 -14 -133 hvcurveto
            82 70 rlineto
            8 131 6 92 0 vvcurveto
            return
          </CharString>
          <CharString index="42">
            -5 callsubr
            90 43 503 7 68 hvcurveto
            15 callsubr
            -66 -46 vhcurveto
            30 19 14 -14 23 callgsubr
            -59 -8 -108 -9 -117 vhcurveto
            -73 callgsubr
            return
          </CharString>
          <CharString index="43">
            rmoveto
            37 -55 -85 -72 -62 -38 6 63 19 51 13 26 18 37 39 6 15 -18 rrcurveto
            return
          </CharString>
          <CharString index="44">
            0 -45 1 -70 -57 vhcurveto
            36 5 return
          </CharString>
          <CharString index="45">
            rmoveto
            -19 -26 -36 -11 -10 -9 -40 -176 -130 -210 -122 -152 39 25 133 152 50 92 48 86 68 134 19 95 rrcurveto
            return
          </CharString>
          <CharString index="46">
            rmoveto
            -23 -59 -65 -2 -13 hvcurveto
            253 hlineto
            22 59 66 1 13 hvcurveto
            endchar
          </CharString>
          <CharString index="47">
            4 371 618 rmoveto
            -44 -58 -67 4 -6 -39 -3 -32 rcurveline
            -23 -11 -27 -19 -36 -25 33 callgsubr
            -58 13 -48 19 -24 vhcurveto
            -16 -27 -17 -28 -19 -30 21 25 21 25 19 25 rrcurveto
            1 0 -1 1 hhcurveto
            -11 14 11 -5 12 hhcurveto
            17 18 9 15 28 hvcurveto
            149 81 61 103 -7 179 -3 61 -21 34 -23 17 rrcurveto
            28 79 12 51 0 vvcurveto
            -70 -323 23 callsubr
            -24 -19 14 23 -11 vhcurveto
            69 103 51 102 36 86 rrcurveto
            7 -23 5 -28 -35 vvcurveto
            -82 151 rmoveto
            8 9 -2 -3 7 hvcurveto
            -12 -66 -30 -103 -78 -150 rrcurveto
            -5 26 -4 34 37 vvcurveto
            27 2 28 5 28 vhcurveto
            42 7 30 102 61 hhcurveto
            return
          </CharString>
          <CharString index="48">
            0 vvcurveto
            0 return
          </CharString>
          <CharString index="49">
            -55 callsubr
            30 32 6 15 28 hvcurveto
            64 33 97 74 38 92 35 83 1 return
          </CharString>
          <CharString index="50">
            rmoveto
            12 0 25 -15 -26 -35 -29 -21 -17 vhcurveto
            19 1 3 -77 -55 -24 -1 -20 -7 vvcurveto
            11 14 11 -7 callsubr
            121 hmoveto
            12 0 25 -14 -26 -36 -29 -21 -17 vhcurveto
            20 1 2 -90 -55 -18 0 -15 -5 20 callsubr
            21 34 callgsubr
          </CharString>
          <CharString index="51">
            rmoveto
            30 68 33 80 40 103 75 -248 rcurveline
            -2 -36 -40 -1 -44 hhcurveto
            return
          </CharString>
          <CharString index="52">
            vvcurveto
            -18 -215 -2 -271 -31 -128 -24 -101 -56 -45 -73 11 -74 10 -18 15 8 31 -26 -16 -79 -61 33 -20 rrcurveto
            -12 18 34 -9 37 hhcurveto
            return
          </CharString>
          <CharString index="53">
            -37 -17 -54 -26 callgsubr
            -221 hlineto
            -1 callsubr
            return
          </CharString>
          <CharString index="54">
            hvcurveto
            47 19 50 47 38 39 rrcurveto
            22 23 11 29 26 93 -136 35 107 vvcurveto
            15 3 11 6 2 vhcurveto
            12 4 16 0 21 -4 rrcurveto
            0 20 -4 -1 -23 vhcurveto
            68 49 5 17 0 vvcurveto
            return
          </CharString>
          <CharString index="55">
            -45 -65 hvcurveto
            -80 -57 -40 -69 -24 -203 rrcurveto
            -9 -17 -9 -11 -59 callsubr
            -23 -28 -26 -21 vhcurveto
            20 10 20 4 20 1 rrcurveto
            -5 -1 -4 -5 -58 callsubr
            289 19 230 rrcurveto
            -1 14 14 -1 15 hhcurveto
            70 50 35 44 62 hvcurveto
            -31 -21 -67 -1 -59 callsubr
            -50 -1 -72 5 vhcurveto
            2 16 25 238 31 38 28 25 rlinecurve
            17 20 return
          </CharString>
          <CharString index="56">
            -39 callgsubr
            -468 vlineto
            -72 callsubr
            59 11 434 vhcurveto
            -15 callgsubr
            return
          </CharString>
          <CharString index="57">
            rmoveto
            -107 callsubr
            return
          </CharString>
          <CharString index="58">
            15 16 19 11 16 hhcurveto
            20 16 -16 -44 -2 hvcurveto
            0 -6 -82 -15 -317 vhcurveto
            77 68 return
          </CharString>
          <CharString index="59">
            -43 callsubr
            hvcurveto
            return
          </CharString>
          <CharString index="60">
            rmoveto
            -22 -8 -70 -6 -46 1 rrcurveto
            -63 callsubr
            30 22 callsubr
            -16 -179 -146 -78 vhcurveto
            210 86 30 193 1 62 rrcurveto
            20 callgsubr
            25 14 30 20 rrcurveto
            return
          </CharString>
          <CharString index="61">
            0 callsubr
            22 20 -4 31 -17 callgsubr
            return
          </CharString>
          <CharString index="62">
            rmoveto
            -61 callgsubr
            return
          </CharString>
          <CharString index="63">
            33 42 85 113 75 169 29 8 30 15 41 30 rrcurveto
            -6 -18 -48 -5 -42 hhcurveto
            return
          </CharString>
          <CharString index="64">
            rmoveto
            -1 0 -1 0 return
          </CharString>
          <CharString index="65">
            89 4 9 21 61 29 rrcurveto
            -1 -4 -22 -4 -32 hhcurveto
            -16 -20 1 4 -19 hvcurveto
            24 30 3 13 0 vvcurveto
            return
          </CharString>
          <CharString index="66">
            -51 -31 -538 -4 -71 hvcurveto
            -3 -71 10 -63 39 -4 69 -5 67 95 39 50 rrcurveto
            return
          </CharString>
          <CharString index="67">
            49 38 -35 callgsubr
            -62 17 -67 -2 return
          </CharString>
          <CharString index="68">
            36 callsubr
            -4 -17 -2 vhcurveto
            15 61 -21 62 32 63 -100 -67 rcurveline
            36 8 rlineto
            -1 -111 -7 -14 0 vvcurveto
            -2 -20 -26 -21 0 vvcurveto
            18 -3 32 2 0 vvcurveto
            21 3 12 4 40 39 rrcurveto
            return
          </CharString>
          <CharString index="69">
            2 42 -33 19 -32 -19 rrcurveto
            0 return
          </CharString>
          <CharString index="70">
            198 rmoveto
            -21 -11 -33 -1 0 vvcurveto
            -3 -4 -1 -5 hhcurveto
            2 62 6 75 10 63 -15 -13 rcurveline
            -47 -30 -46 -74 -39 -71 -75 -62 rlinecurve
            6 44 43 2 47 hhcurveto
            7 7 -1 1 7 hvcurveto
            -20 vlineto
            0 0 -30 -25 -19 vhcurveto
            20 1 34 -26 callgsubr
            25 22 10 38 18 hvcurveto
            0 -28 -8 -27 -2 vhcurveto
            10 13 1 16 8 vvcurveto
            23 8 22 14 20 26 rrcurveto
            return
          </CharString>
          <CharString index="71">
            0 -30 -11 -76 -11 10 callgsubr
            -13 vhcurveto
            13 11 0 21 -59 callsubr
            0 return
          </CharString>
          <CharString index="72">
            -60 -46 -59 -46 -67 -73 19 callgsubr
            -1 return
          </CharString>
          <CharString index="73">
            -92 -63 -41 -114 21 callsubr
            return
          </CharString>
          <CharString index="74">
            vlineto
            1 -83 -4 -34 -40 -40 rrcurveto
            8 return
          </CharString>
          <CharString index="75">
            rmoveto
            -2 -28 -28 2 -36 27 callgsubr
            -13 -35 -15 hvcurveto
            6 10 33 4 12 hhcurveto
            11 22 -2 -2 20 hvcurveto
            -23 -31 -36 -31 -22 -25 rrcurveto
            39 10 59 -18 -51 vvcurveto
            -39 -29 -35 -39 2 vhcurveto
            -16 -7 20 19 3 hvcurveto
            -24 -11 -24 -21 -16 vvcurveto
            -11 12 -8 32 60 82 52 69 42 -31 24 -44 11 vhcurveto
            38 39 28 21 6 30 rrcurveto
            return
          </CharString>
          <CharString index="76">
            rmoveto
            -46 43 -95 62 -60 41 64 40 86 78 51 59 -15 25 rcurveline
            -17 -42 -121 -113 -90 -23 rrcurveto
            -10 -42 -24 -43 -59 callsubr
            99 -51 112 -104 vhcurveto
            return
          </CharString>
          <CharString index="77">
            rmoveto
            46 -43 95 -62 60 -41 -64 -40 -86 -78 -51 -59 15 -25 rcurveline
            17 42 121 113 90 23 rrcurveto
            10 42 24 43 -59 callsubr
            -99 51 -112 104 vhcurveto
            return
          </CharString>
          <CharString index="78">
            vvcurveto
            -44 32 -37 46 42 34 19 54 54 vhcurveto
            return
          </CharString>
          <CharString index="79">
            588 rmoveto
            -31 -21 -67 -1 -59 callsubr
            -19 -1 -29 1 vhcurveto
            3 31 rlineto
            9 callgsubr
            rrcurveto
            -6 -1 -61 -2 -109 vhcurveto
            -13 1 -13 1 -15 6 callsubr
            12 -2 12 -1 11 -1 -1 -59 -2 -68 -1 -78 rrcurveto
            0 return
          </CharString>
          <CharString index="80">
            hhcurveto
            16 13 -9 -23 -2 hvcurveto
            return
          </CharString>
          <CharString index="81">
            -22 callsubr
            -23 403 -62 callsubr
            return
          </CharString>
          <CharString index="82">
            -33 callsubr
            28 105 3 127 hhcurveto
            0 73 0 64 60 vhcurveto
            -54 callsubr
            return
          </CharString>
          <CharString index="83">
            -8 -246 vhcurveto
            -91 -48 rlineto
            -1 return
          </CharString>
          <CharString index="84">
            73 hlineto
            31 59 11 40 69 hvcurveto
            return
          </CharString>
          <CharString index="85">
            -95 45 -30 33 21 117 39 136 vhcurveto
            -52 -9 rmoveto
            -33 -9 -103 -53 -18 -35 25 73 129 43 6 12 34 26 -46 -51 vhcurveto
            return
          </CharString>
          <CharString index="86">
            vhcurveto
            0 -5 -132 -12 -64 vhcurveto
            -45 -34 rlineto
            10 10 0 1 9 hvcurveto
            return
          </CharString>
          <CharString index="87">
            hhcurveto
            -19 -22 0 3 -28 hvcurveto
            21 26 5 33 -59 callsubr
            return
          </CharString>
          <CharString index="88">
            vvcurveto
            -54 17 -24 25 -3 vhcurveto
            46 -5 60 81 35 39 4 return
          </CharString>
          <CharString index="89">
            138 269 143 247 return
          </CharString>
          <CharString index="90">
            392 rmoveto
            260 -219 54 -129 vhcurveto
            -47 -47 -7 -57 hhcurveto
            -31 -33 1 4 -30 hvcurveto
            -91 -60 31 -1 28 2 28 3 rlinecurve
            return
          </CharString>
          <CharString index="91">
            -69 callsubr
            -38 callsubr
            -30 -18 return
          </CharString>
          <CharString index="92">
            3 20 2 rrcurveto
            return
          </CharString>
          <CharString index="93">
            rmoveto
            -16 callgsubr
            364 hlineto
            42 25 70 40 hhcurveto
            return
          </CharString>
          <CharString index="94">
            -44 callgsubr
            -37 0 -60 -70 callsubr
            return
          </CharString>
          <CharString index="95">
            328 162 rmoveto
            -62 -85 -41 -10 0 vvcurveto
            -41 -10 -30 37 4 64 rrcurveto
            0 return
          </CharString>
          <CharString index="96">
            vhcurveto
            43 -5 86 93 32 33 return
          </CharString>
          <CharString index="97">
            -59 callsubr
            0 -105 -45 vhcurveto
            43 -2 124 1 20 1 rrcurveto
            203 260 150 242 hvcurveto
            return
          </CharString>
          <CharString index="98">
            62 0 vvcurveto
            return
          </CharString>
          <CharString index="99">
            36 callgsubr
            -47 41 vhcurveto
            -78 -54 rlineto
            45 -12 callgsubr
            39 28 29 42 hvcurveto
            return
          </CharString>
          <CharString index="100">
            7 callsubr
            22 16 callgsubr
            return
          </CharString>
          <CharString index="101">
            rmoveto
            -3 -1 hlineto
            1 1 8 callgsubr
            return
          </CharString>
          <CharString index="102">
            521 157 rmoveto
            -19 -41 -49 -39 0 vvcurveto
            -10 -13 -10 -5 -9 hhcurveto
            -24 -8 39 67 return
          </CharString>
          <CharString index="103">
            2 -10 callgsubr
            return
          </CharString>
          <CharString index="104">
            rmoveto
            0 -2 -68 -25 -50 vhcurveto
            75 46 17 39 -59 callsubr
            17 39 -2 63 vhcurveto
            return
          </CharString>
          <CharString index="105">
            -124 -29 callgsubr
            return
          </CharString>
          <CharString index="106">
            40 20 2 33 0 return
          </CharString>
          <CharString index="107">
            vhcurveto
            3 14 11 1 11 return
          </CharString>
          <CharString index="108">
            0 vvcurveto
            29 150 41 53 27 9 rrcurveto
            78 24 12 -131 -55 vvcurveto
            -117 -54 -71 -26 -20 vhcurveto
            -13 -17 -36 -3 -38 hhcurveto
            endchar
          </CharString>
          <CharString index="109">
            -24 rrcurveto
            -15 4 20 -7 25 hhcurveto
            return
          </CharString>
          <CharString index="110">
            15 20 47 69 hvcurveto
            -2 -5 return
          </CharString>
          <CharString index="111">
            21 25 11 23 29 return
          </CharString>
          <CharString index="112">
            -4 callsubr
            -11 -20 vhcurveto
            63 44 10 4 0 vvcurveto
            -54 callgsubr
            return
          </CharString>
          <CharString index="113">
            2 -35 3 -34 -56 -26 -22 rrcurveto
            42 22 58 -7 0 vvcurveto
            return
          </CharString>
          <CharString index="114">
            16 9 14 17 23 return
          </CharString>
          <CharString index="115">
            36 callgsubr
            -48 41 vhcurveto
            -78 -54 rlineto
            46 26 callgsubr
          </CharString>
          <CharString index="116">
            rmoveto
            -1 -1 0 0 -1 hhcurveto
            1 0 8 callgsubr
            return
          </CharString>
          <CharString index="117">
            -64 callsubr
            endchar
          </CharString>
          <CharString index="118">
            hlineto
            41 40 66 4 24 hvcurveto
            return
          </CharString>
          <CharString index="119">
            -17 -45 -48 -11 -56 hhcurveto
            return
          </CharString>
          <CharString index="120">
            rmoveto
            49 11 57 -34 -19 -67 rrcurveto
            -2 -9 -9 -2 -8 hhcurveto
            -44 -25 33 61 8 hvcurveto
            return
          </CharString>
          <CharString index="121">
            -20 -23 -42 -22 0 vvcurveto
            -22 -14 -13 -4 -7 -28 -8 -31 -6 -28 -7 -26 rrcurveto
            return
          </CharString>
          <CharString index="122">
            6 67 -31 11 -27 -15 rrcurveto
            0 -25 -14 return
          </CharString>
          <CharString index="123">
            -46 30 callsubr
            return
          </CharString>
          <CharString index="124">
            -4 99 -46 42 -46 -7 -45 -7 -57 -49 -41 -58 rrcurveto
            0 -15 -22 -27 return
          </CharString>
          <CharString index="125">
            2 78 3 return
          </CharString>
          <CharString index="126">
            -15 12 -20 -43 -39 -42 -34 -37 vhcurveto
            9 15 13 4 11 hhcurveto
            23 return
          </CharString>
          <CharString index="127">
            vvcurveto
            11 14 11 7 callsubr
            return
          </CharString>
          <CharString index="128">
            -115 vvcurveto
            return
          </CharString>
          <CharString index="129">
            -15 callsubr
            -493 vlineto
            -106 return
          </CharString>
          <CharString index="130">
            rmoveto
            -65 -20 -177 -94 return
          </CharString>
          <CharString index="131">
            21 16 7 13 hhcurveto
            return
          </CharString>
          <CharString index="132">
            -11 0 vvcurveto
            return
          </CharString>
          <CharString index="133">
            hlineto
            42 42 70 23 hhcurveto
            endchar
          </CharString>
          <CharString index="134">
            117 89 return
          </CharString>
          <CharString index="135">
            208 vvcurveto
            return
          </CharString>
          <CharString index="136">
            rmoveto
            -14 -21 -20 -4 -15 hhcurveto
            -21 -13 8 0 return
          </CharString>
          <CharString index="137">
            1 rrcurveto
            0 return
          </CharString>
          <CharString index="138">
            -16 -9 -14 -17 -23 -22 -100 -2 -28 rrcurveto
            return
          </CharString>
          <CharString index="139">
            hhcurveto
            -23 callgsubr
            return
          </CharString>
          <CharString index="140">
            128 72 -44 23 0 vvcurveto
            endchar
          </CharString>
          <CharString index="141">
            13 41 30 90 33 108 rrcurveto
            return
          </CharString>
          <CharString index="142">
            rmoveto
            51 -23 65 -63 return
          </CharString>
          <CharString index="143">
            rmoveto
            0 -32 return
          </CharString>
          <CharString index="144">
            -37 -31 vhcurveto
            return
          </CharString>
        <CharString name=".notdef">
          -158 endchar
        </CharString>
        <CharString name="A">
          -101 callsubr
          endchar
        </CharString>
        <CharString name="AE">
          -75 callgsubr
          endchar
        </CharString>
        <CharString name="AEacute">
          -75 callgsubr
          427 636 -105 callsubr
        </CharString>
        <CharString name="Aacute">
          -101 callsubr
          298 616 -105 callsubr
        </CharString>
        <CharString name="Abreve">
          -101 callsubr
          210 570 -95 callgsubr
        </CharString>
        <CharString name="Acircumflex">
          235 196 -104 callsubr
          232 432 -104 callgsubr
        </CharString>
        <CharString name="Adieresis">
          233 -102 callsubr
          181 504 -78 callsubr
        </CharString>
        <CharString name="Agrave">
          -101 callsubr
          80 439 -90 callgsubr
        </CharString>
        <CharString name="Amacron">
          -101 callsubr
          10 505 -61 callsubr
        </CharString>
        <CharString name="Aogonek">
          232 667 -109 -29 callgsubr
          22 8 22 12 18 hvcurveto
          32 4 32 18 66 31 rrcurveto
          0 -16 -2 -24 -22 -26 1 7 -27 vhcurveto
          -191 649 -85 -78 rlineto
          -176 -453 -46 -86 -59 callsubr
          -18 -34 -23 -28 vhcurveto
          -53 -30 rlineto
          -23 callsubr
          -82 callgsubr
          61 hlineto
          -28 -23 -21 -32 -46 -29 callsubr
          -462 418 -56 callsubr
          endchar
        </CharString>
        <CharString name="Aring">
          -101 callsubr
          165 516 -62 callgsubr
        </CharString>
        <CharString name="Atilde">
          -101 callsubr
          218 534 -91 callsubr
        </CharString>
        <CharString name="B">
          161 532 236 rmoveto
          0 0 165 -165 -10 -10 -1 -1 -11 vhcurveto
          151 36 0 120 0 vvcurveto
          120 -112 25 -95 vhcurveto
          0 -41 -3 -48 -24 -26 1 2 -22 vhcurveto
          -91 -51 38 -1 31 1 24 1 rlinecurve
          -15 -469 -4 -89 -59 callsubr
          -3 -90 -40 -2 vhcurveto
          134 hlineto
          92 247 51 185 hvcurveto
          -343 -116 rmoveto
          0 8 57 10 476 vhcurveto
          68 -1 114 -13 -102 vvcurveto
          -118 -73 -24 -85 -40 vhcurveto
          1 12 13 1 11 hhcurveto
          126 58 -66 -108 -12 hvcurveto
          -9 -80 -55 -56 -41 -6 rrcurveto
          0 -13 -2 -31 -29 -46 2 6 -65 vhcurveto
          32 15 7 58 0 vvcurveto
          endchar
        </CharString>
        <CharString name="C">
          -76 callgsubr
          endchar
        </CharString>
        <CharString name="Cacute">
          -76 callgsubr
          -56 257 -105 callsubr
        </CharString>
        <CharString name="Ccaron">
          244 644 671 rmoveto
          0 -29 -38 -56 -22 vhcurveto
          24 18 -47 32 -125 hhcurveto
          -110 -169 -61 -245 -245 196 -58 103 hvcurveto
          0 103 0 86 34 vhcurveto
          -125 -101 -100 -26 callgsubr
          -192 -160 116 199 185 116 107 53 29 hvcurveto
          29 52 138 58 93 hhcurveto
          139 26 -31 -12 -10 hvcurveto
          -410 197 -92 callgsubr
        </CharString>
        <CharString name="Ccedilla">
          244 -76 callsubr
          -175 123 -110 160 -24 vhcurveto
          -17 -14 -25 -26 -51 -63 -68 callsubr
          47 57 rcurveline
          -2 15 16 -1 17 hhcurveto
          0 100 0 125 101 vhcurveto
          -86 -34 -103 -69 callgsubr
          endchar
        </CharString>
        <CharString name="Ccircumflex">
          -76 callgsubr
          -84 127 -104 callgsubr
        </CharString>
        <CharString name="Cdotaccent">
          -76 callgsubr
          -239 187 -63 callgsubr
        </CharString>
        <CharString name="D">
          343 713 -17 callsubr
          -8 -437 0 -106 -10 callsubr
          -523 -257 rmoveto
          0 4 51 7 473 vhcurveto
          4 31 33 3 38 hhcurveto
          112 208 -73 -241 -163 -109 -138 -180 -35 -57 1 4 -90 hvcurveto
          34 27 4 52 0 vvcurveto
          endchar
        </CharString>
        <CharString name="Dcaron">
          343 713 392 rmoveto
          -242 -260 -150 -203 vhcurveto
          -20 -1 -124 -1 -43 2 rrcurveto
          45 0 105 0 0 0 106 8 437 hvcurveto
          -28 -3 -28 -2 -31 1 91 60 rcurveline
          -4 30 33 -1 31 57 47 7 47 hhcurveto
          129 219 -54 -260 hvcurveto
          -523 -257 rmoveto
          0 -4 -52 -34 -27 vhcurveto
          -4 90 57 -1 35 hhcurveto
          180 109 138 163 241 -208 73 -112 -38 -33 -3 -4 -31 hvcurveto
          -7 -473 -4 -51 0 vvcurveto
          28 743 -92 callgsubr
        </CharString>
        <CharString name="Dcroat">
          -56 callgsubr
        </CharString>
        <CharString name="E">
          -105 callgsubr
          endchar
        </CharString>
        <CharString name="Eacute">
          -105 callgsubr
          82 552 -105 callsubr
        </CharString>
        <CharString name="Ebreve">
          -105 callgsubr
          -5 486 -95 callgsubr
        </CharString>
        <CharString name="Ecaron">
          104 429 383 rmoveto
          0 -10 -4 -63 -44 vhcurveto
          11 20 -42 -2 0 vvcurveto
          -23 -2 -47 -3 -55 -2 rrcurveto
          -208 -4 -43 0 vhcurveto
          0 -2 -33 -40 -20 vhcurveto
          221 hlineto
          0 54 0 37 17 vhcurveto
          -64 -60 -73 -26 callgsubr
          -127 -105 -3 -8 -28 hvcurveto
          40 40 4 34 -1 83 rrcurveto
          200 vlineto
          -19 -18 1 1 -17 hvcurveto
          54 28 rlineto
          71 -1 81 121 vvcurveto
          -29 -27 1 1 -22 hvcurveto
          91 48 rlineto
          246 104 8 0 hvcurveto
          44 -22 -16 -4 -10 hvcurveto
          0 -10 -4 -77 -52 vhcurveto
          26 28 -42 -2 0 vvcurveto
          -25 -2 -78 -3 -81 -2 rrcurveto
          1 -104 0 -81 -69 vvcurveto
          132 1 85 7 0 vvcurveto
          43 1 -21 -17 -10 -4 rrcurveto
          -296 487 -92 callgsubr
        </CharString>
        <CharString name="Ecircumflex">
          -105 callgsubr
          4 400 -104 callgsubr
        </CharString>
        <CharString name="Edieresis">
          -105 callgsubr
          -55 452 -78 callsubr
        </CharString>
        <CharString name="Edotaccent">
          -105 callgsubr
          -135 461 -63 callgsubr
        </CharString>
        <CharString name="Egrave">
          -105 callgsubr
          -92 392 -90 callgsubr
        </CharString>
        <CharString name="Emacron">
          -105 callgsubr
          -209 426 -61 callsubr
        </CharString>
        <CharString name="Eng">
          331 668 682 rmoveto
          13 7 15 8 20 13 rrcurveto
          3 -22 -19 1 -15 hhcurveto
          -30 -15 -4 0 0 -34 -8 -64 -46 hvcurveto
          6 14 22 0 23 hhcurveto
          26 hlineto
          6 -23 4 -30 -59 vvcurveto
          -147 -4 -27 -8 -236 vhcurveto
          -34 45 -64 68 -64 66 -82 85 -90 74 -55 94 rrcurveto
          0 -47 79 -7 92 vhcurveto
          -54 -87 rlineto
          -75 vlineto
          -177 -5 -182 0 -21 callsubr
          7 4 -2 -3 -2 -1 -42 callsubr
          7 26 8 201 1 166 rrcurveto
          32 -49 39 -38 0 vvcurveto
          75 -74 195 -206 46 -53 rrcurveto
          0 27 -32 12 -27 vhcurveto
          -8 -157 -46 -48 -112 -113 146 62 89 137 4 153 rrcurveto
          -588 -45 -6 callsubr
          endchar
        </CharString>
        <CharString name="Eogonek">
          104 458 -122 -29 callgsubr
          27 12 25 16 22 hvcurveto
          22 1 54 10 51 48 rrcurveto
          -87 callsubr
          -101 callgsubr
          27 98 3 120 hhcurveto
          -35 -24 -29 -35 -54 -29 callsubr
          endchar
        </CharString>
        <CharString name="Eth">
          -56 callgsubr
        </CharString>
        <CharString name="Euro">
          388 411 450 rmoveto
          12 callsubr
          -10 10 callgsubr
          -12 hvcurveto
          193 26 149 51 100 hhcurveto
          -48 callgsubr
          -49 callgsubr
          -40 -22 -73 -64 -36 -107 -20 -24 -27 -29 -39 -33 15 10 29 4 26 2 rrcurveto
          -2 -10 -1 -10 -10 vvcurveto
          -16 -22 -35 -44 -59 -50 26 18 68 -1 22 -1 rrcurveto
          -155 34 143 -88 168 22 callgsubr
          -85 -149 39 152 -49 hvcurveto
          37 12 43 21 48 38 -43 -16 -44 -11 -52 -1 rrcurveto
          -3 21 -2 23 25 vvcurveto
          4 vlineto
          38 5 69 16 80 64 rrcurveto
          endchar
        </CharString>
        <CharString name="F">
          83 412 367 rmoveto
          10 4 22 17 -44 -2 rrcurveto
          0 -82 -7 -118 -1 vhcurveto
          72 0 87 -1 112 vhcurveto
          81 18 callsubr
          25 -74 callsubr
          -104 -24 callsubr
          22 27 -1 29 hhcurveto
          -129 1 -88 -72 vvcurveto
          -54 -28 rlineto
          -1 18 18 -1 18 hhcurveto
          -184 vlineto
          1 -83 -4 -34 -40 -40 47 12 110 -22 91 81 rrcurveto
          -60 -17 -103 -26 callgsubr
          -1 callsubr
          vvcurveto
          0 3 43 1 192 vhcurveto
          47 2 39 3 23 -4 callsubr
          -11 -20 vhcurveto
          62 44 10 4 0 vvcurveto
          endchar
        </CharString>
        <CharString name="G">
          -94 callsubr
          endchar
        </CharString>
        <CharString name="Gbreve">
          -94 callsubr
          -115 208 -95 callgsubr
        </CharString>
        <CharString name="Gcircumflex">
          -94 callsubr
          -81 127 -104 callgsubr
        </CharString>
        <CharString name="Gcommaaccent">
          -94 callsubr
          -249 -754 -96 callsubr
        </CharString>
        <CharString name="Gdotaccent">
          -94 callsubr
          -233 180 -63 callgsubr
        </CharString>
        <CharString name="H">
          -36 callgsubr
          -194 vlineto
          -72 callsubr
          40 4 191 2 callgsubr
          -254 vlineto
          -105 -20 -14 -42 -20 -46 callsubr
          69 hvcurveto
          -2 -5 -38 -13 -61 hhcurveto
          -11 -11 0 1 -12 hvcurveto
          4 callgsubr
          -1 60 12 472 vhcurveto
          13 callgsubr
          13 30 20 rrcurveto
          -19 callgsubr
          30 -15 callsubr
          -243 -23 vlineto
          -89 -123 5 -72 hhcurveto
          -19 -18 -2 -3 -17 hvcurveto
          1 70 18 callsubr
          112 13 callgsubr
          13 30 20 rrcurveto
          13 -659 -48 callsubr
          446 1 -48 callsubr
          endchar
        </CharString>
        <CharString name="Hbar">
          -36 callgsubr
          -63 -14 vlineto
          -35 -17 -36 -3 -32 hvcurveto
          98 -92 hlineto
          -72 callsubr
          24 1 90 vhcurveto
          365 -128 hlineto
          -105 -20 -14 -42 -20 -46 callsubr
          69 hvcurveto
          -2 -5 -38 -13 -61 hhcurveto
          -11 -11 0 1 -12 hvcurveto
          4 callgsubr
          0 24 1 90 vhcurveto
          14 hlineto
          40 16 37 2 25 hvcurveto
          -94 hlineto
          1 79 3 115 5 185 13 callgsubr
          13 30 20 rrcurveto
          -19 callgsubr
          30 -15 callsubr
          -243 -23 vlineto
          -89 -123 5 -72 hhcurveto
          -19 -18 -2 -3 -17 hvcurveto
          1 70 18 callsubr
          112 13 callgsubr
          13 30 20 rrcurveto
          279 -421 rmoveto
          -364 hlineto
          23 1 24 1 31 2 callgsubr
          179 -325 -48 callsubr
          -444 1 -48 callsubr
          endchar
        </CharString>
        <CharString name="Hcircumflex">
          -36 callgsubr
          -194 vlineto
          -72 callsubr
          40 4 191 2 callgsubr
          -254 vlineto
          -105 -20 -14 -42 -20 -46 callsubr
          69 hvcurveto
          -2 -5 -38 -13 -61 hhcurveto
          -11 -11 0 1 -12 hvcurveto
          4 callgsubr
          -1 60 12 472 vhcurveto
          13 callgsubr
          13 30 20 rrcurveto
          -19 callgsubr
          30 -15 callsubr
          -243 -23 vlineto
          -89 -123 5 -72 hhcurveto
          -19 -18 -2 -3 -17 hvcurveto
          1 70 18 callsubr
          112 13 callgsubr
          13 30 20 rrcurveto
          13 -659 -48 callsubr
          446 1 -48 callsubr
          -179 736 -104 callgsubr
        </CharString>
        <CharString name="I">
          -100 callgsubr
          endchar
        </CharString>
        <CharString name="IJ">
          206 295 63 -103 callgsubr
          296 660 -47 callsubr
          endchar
        </CharString>
        <CharString name="Iacute">
          -100 callgsubr
          114 889 -105 callsubr
        </CharString>
        <CharString name="Ibreve">
          -100 callgsubr
          5 818 -95 callgsubr
        </CharString>
        <CharString name="Icircumflex">
          -100 callgsubr
          49 733 -104 callgsubr
        </CharString>
        <CharString name="Idieresis">
          -100 callgsubr
          -20 797 -78 callsubr
        </CharString>
        <CharString name="Idotaccent">
          -100 callgsubr
          -130 788 -63 callgsubr
        </CharString>
        <CharString name="Igrave">
          -100 callgsubr
          -80 727 -90 callgsubr
        </CharString>
        <CharString name="Imacron">
          -100 callgsubr
          -202 755 -61 callsubr
        </CharString>
        <CharString name="Iogonek">
          -95 255 -2 callsubr
          27 12 25 16 21 hvcurveto
          8 9 -1 10 -17 callgsubr
          70 hvcurveto
          -102 callgsubr
          hhcurveto
          8 8 0 -1 8 hvcurveto
          -37 -25 -30 -34 -56 -29 callsubr
          endchar
        </CharString>
        <CharString name="Itilde">
          -100 callgsubr
          -9 797 -91 callsubr
        </CharString>
        <CharString name="J">
          -107 278 723 -47 callsubr
          endchar
        </CharString>
        <CharString name="Jcircumflex">
          -107 278 723 -47 callsubr
          30 78 -104 callgsubr
        </CharString>
        <CharString name="K">
          277 632 37 callgsubr
          -22 -8 -69 -6 16 callsubr
          -46 1 -69 -57 vhcurveto
          43 6 35 3 19 2 -34 -84 -131 -126 -59 -49 -42 -53 rcurveline
          101 -151 102 -91 0 vvcurveto
          72 -64 84 -55 41 4 rrcurveto
          0 41 4 78 84 vhcurveto
          -10 -20 -19 -3 -17 hhcurveto
          -145 -155 213 118 -83 hvcurveto
          83 83 96 83 66 105 29 8 28 15 39 27 rrcurveto
          -337 -660 -103 callgsubr
          endchar
        </CharString>
        <CharString name="Kcommaaccent">
          277 632 37 callgsubr
          -22 -8 -69 -6 16 callsubr
          -46 1 -69 -57 vhcurveto
          43 6 35 3 19 2 -34 -84 -131 -126 -59 -49 -42 -53 rcurveline
          101 -151 102 -91 0 vvcurveto
          72 -64 84 -55 41 4 rrcurveto
          0 41 4 78 84 vhcurveto
          -10 -20 -19 -3 -17 hhcurveto
          -145 -155 213 118 -83 hvcurveto
          83 83 96 83 66 105 29 8 28 15 39 27 rrcurveto
          -337 -660 -103 callgsubr
          84 -116 -96 callsubr
        </CharString>
        <CharString name="L">
          68 282 37 callgsubr
          -88 callsubr
          -493 -43 callgsubr
          7 30 123 1 85 hhcurveto
          75 hlineto
          46 3 callsubr
          -45 -13 -179 hhcurveto
          -31 -34 0 1 -39 hvcurveto
          31 30 -20 callgsubr
          rrcurveto
          216 -651 -48 callsubr
          endchar
        </CharString>
        <CharString name="Lacute">
          68 282 37 callgsubr
          -88 callsubr
          -493 -43 callgsubr
          7 30 123 1 85 hhcurveto
          75 hlineto
          46 3 callsubr
          -45 -13 -179 hhcurveto
          -31 -34 0 1 -39 hvcurveto
          31 30 -20 callgsubr
          rrcurveto
          216 -651 -48 callsubr
          -81 886 -105 callsubr
        </CharString>
        <CharString name="Lcaron">
          68 282 37 callgsubr
          -88 callsubr
          -493 -43 callgsubr
          7 30 123 1 85 hhcurveto
          75 hlineto
          46 3 callsubr
          -45 -13 -179 hhcurveto
          -31 -34 0 1 -39 hvcurveto
          31 30 -20 callgsubr
          rrcurveto
          216 -651 -48 callsubr
          -96 728 -96 callsubr
        </CharString>
        <CharString name="Lcommaaccent">
          68 282 37 callgsubr
          -88 callsubr
          -493 -43 callgsubr
          7 30 123 1 85 hhcurveto
          75 hlineto
          46 3 callsubr
          -45 -13 -179 hhcurveto
          -31 -34 0 1 -39 hvcurveto
          31 30 -20 callgsubr
          rrcurveto
          216 -651 -48 callsubr
          -225 -147 -96 callsubr
        </CharString>
        <CharString name="Ldot">
          265 282 37 callgsubr
          -88 callsubr
          -493 -43 callgsubr
          7 30 123 1 85 hhcurveto
          75 hlineto
          46 3 callsubr
          -45 -13 -179 hhcurveto
          -31 -34 0 1 -39 hvcurveto
          31 30 -20 callgsubr
          rrcurveto
          216 -651 -48 callsubr
          117 277 -45 callsubr
          endchar
        </CharString>
        <CharString name="Lslash">
          68 370 433 rmoveto
          -54 -19 -51 9 -37 -22 -29 -23 rcurveline
          1 75 3 93 3 134 -28 callgsubr
          -88 callsubr
          -349 vlineto
          -28 -19 -29 -17 -30 -14 rrcurveto
          -2 0 -5 0 0 38 10 51 18 hvcurveto
          -117 -43 callgsubr
          7 30 123 1 85 hhcurveto
          75 hlineto
          46 3 callsubr
          -45 -13 -179 hhcurveto
          -31 -34 0 1 -39 hvcurveto
          31 30 -37 callgsubr
          0 32 3 140 vhcurveto
          31 14 32 17 27 18 rrcurveto
          22 15 60 48 0 vvcurveto
          128 -361 -48 callsubr
          endchar
        </CharString>
        <CharString name="M">
          582 986 58 rmoveto
          -6 -16 -24 -3 -26 hhcurveto
          -15 -16 1 2 -15 hvcurveto
          9 7 3 19 29 vvcurveto
          202 -20 198 8 240 vhcurveto
          -102 -80 -65 -166 -122 -181 -111 -172 rlinecurve
          -63 130 -201 378 -13 34 rrcurveto
          0 -14 37 10 20 vhcurveto
          -71 -78 -20 -138 10 -473 -73 -70 rlinecurve
          81 30 20 41 55 hvcurveto
          0 -27 -6 -28 -14 -14 2 4 -11 vhcurveto
          42 137 4 172 9 158 rrcurveto
          158 -294 49 -92 -59 callsubr
          52 -97 -3 -45 vhcurveto
          85 95 66 194 98 85 103 182 rlinecurve
          2 -125 18 -302 -50 vvcurveto
          -30 -5 -18 -17 -31 vhcurveto
          98 85 44 26 31 hvcurveto
          endchar
        </CharString>
        <CharString name="N">
          -95 callsubr
          endchar
        </CharString>
        <CharString name="Nacute">
          -95 callsubr
          545 915 -105 callsubr
        </CharString>
        <CharString name="Ncaron">
          344 141 90 rmoveto
          0 -3 -13 -24 -30 vhcurveto
          -4 19 20 -1 16 hhcurveto
          32 22 4 1 4 hvcurveto
          -61 -29 -9 -21 -89 -4 2 1 2 3 2 4 -9 -8 rcurveline
          -1 -9 -10 0 -10 hhcurveto
          45 34 rlineto
          12 64 5 132 0 vvcurveto
          3 147 2 143 144 vvcurveto
          54 87 15 -251 302 -170 126 -180 rlinecurve
          10 140 2 135 133 vvcurveto
          60 -3 30 -7 23 vhcurveto
          -1 -8 -9 0 -9 hhcurveto
          -23 -22 0 -6 -14 hvcurveto
          34 49 40 24 54 hhcurveto
          15 19 -1 -3 22 hvcurveto
          -18 -11 -15 -9 -15 -7 -1 -198 -13 -193 -9 -191 -39 -64 -15 -43 -3 -9 rrcurveto
          -2 vlineto
          -89 204 -232 106 -110 201 -1 -169 -6 -182 -9 -53 rrcurveto
          -7 callgsubr
          176 857 -92 callgsubr
        </CharString>
        <CharString name="Ncommaaccent">
          -95 callsubr
          311 -43 -96 callsubr
        </CharString>
        <CharString name="Ntilde">
          -95 callsubr
          470 834 -91 callsubr
        </CharString>
        <CharString name="O">
          -96 callgsubr
          endchar
        </CharString>
        <CharString name="OE">
          641 1023 686 rmoveto
          4 10 22 16 -44 hhcurveto
          0 -104 -8 -246 vhcurveto
          -69 -36 rlineto
          33 -54 -63 14 -56 hhcurveto
          -52 callgsubr
          89 143 59 108 91 hvcurveto
          -11 -25 callsubr
          0 4 43 28 callsubr
          55 2 47 4 23 1 -10 callgsubr
          -11 -20 vhcurveto
          63 44 10 4 0 vvcurveto
          -54 callgsubr
          69 0 81 -1 104 vhcurveto
          81 18 callsubr
          25 -57 callgsubr
          -379 -337 -77 callgsubr
          4 268 rmoveto
          -11 12 -12 10 -13 9 rrcurveto
          36 hlineto
          endchar
        </CharString>
        <CharString name="Oacute">
          -96 callgsubr
          -47 590 -105 callsubr
        </CharString>
        <CharString name="Obreve">
          -96 callgsubr
          -115 525 -95 callgsubr
        </CharString>
        <CharString name="Ocircumflex">
          -96 callgsubr
          -77 429 -104 callgsubr
        </CharString>
        <CharString name="Odieresis">
          -96 callgsubr
          -136 491 -78 callsubr
        </CharString>
        <CharString name="Ograve">
          -96 callgsubr
          -240 431 -90 callgsubr
        </CharString>
        <CharString name="Ohungarumlaut">
          -96 callgsubr
          -98 597 -83 callgsubr
        </CharString>
        <CharString name="Omacron">
          -96 callgsubr
          -305 458 -61 callsubr
        </CharString>
        <CharString name="Oslash">
          -59 callgsubr
          endchar
        </CharString>
        <CharString name="Oslashacute">
          -59 callgsubr
          -12 599 -105 callsubr
        </CharString>
        <CharString name="Otilde">
          -96 callgsubr
          -102 497 -91 callsubr
        </CharString>
        <CharString name="P">
          141 538 524 rmoveto
          119 12 -93 73 -103 -57 -57 -12 -63 hhcurveto
          -19 -18 0 2 -18 hvcurveto
          -95 -57 88 9 rlineto
          -1 -111 -4 -264 -58 callgsubr
          9 59 8 491 vhcurveto
          3 36 33 2 23 hhcurveto
          66 86 -53 -93 8 hvcurveto
          9 -123 -83 -99 -74 5 31 callgsubr
          20 124 68 13 131 rrcurveto
          endchar
        </CharString>
        <CharString name="Q">
          373 910 -46 rmoveto
          -7 -28 -26 -3 -22 hhcurveto
          -96 -85 60 56 -87 hvcurveto
          96 62 79 104 153 vvcurveto
          247 -176 83 -138 -97 -292 -76 -330 -205 179 -109 118 39 46 8 15 46 vhcurveto
          -41 78 130 -75 81 hhcurveto
          0 54 2 101 56 vhcurveto
          -258 395 rmoveto
          -216 -111 -89 -116 -133 -172 88 217 243 114 63 133 154 131 -90 -216 vhcurveto
          endchar
        </CharString>
        <CharString name="R">
          -90 callsubr
          endchar
        </CharString>
        <CharString name="Racute">
          -90 callsubr
          -203 891 -105 callsubr
        </CharString>
        <CharString name="Rcaron">
          267 521 524 rmoveto
          -10 -97 -82 -49 -60 -27 rrcurveto
          230 -246 36 -26 0 vvcurveto
          -14 18 23 -5 20 hhcurveto
          17 17 4 4 9 hvcurveto
          -42 -62 -30 -27 -38 hhcurveto
          -26 -24 15 37 -38 hvcurveto
          -37 38 -163 189 -26 16 rrcurveto
          0 -26 16 -23 -2 vhcurveto
          71 49 rlineto
          65 58 62 106 -5 hvcurveto
          93 -4 -114 44 -66 -15 -18 -1 -18 hhcurveto
          -8 -486 -9 -59 -59 callsubr
          -5 -33 -21 -26 vhcurveto
          -3 28 22 0 19 hhcurveto
          45 20 4 1 3 hvcurveto
          -33 -68 -51 -27 -48 hhcurveto
          -85 hlineto
          43 29 rlineto
          20 67 4 188 -59 callsubr
          4 261 1 112 vhcurveto
          -88 -7 95 57 rlineto
          -2 11 14 0 14 57 52 12 53 hhcurveto
          104 106 -73 -119 -11 hvcurveto
          -4 callgsubr
          -565 818 -92 callgsubr
        </CharString>
        <CharString name="Rcommaaccent">
          -90 callsubr
          -373 -122 -96 callsubr
        </CharString>
        <CharString name="S">
          -72 callgsubr
          endchar
        </CharString>
        <CharString name="Sacute">
          -72 callgsubr
          32 725 -105 callsubr
        </CharString>
        <CharString name="Scaron">
          96 465 206 rmoveto
          -100 -213 -122 -84 -3 vhcurveto
          -53 -2 -77 28 -16 16 -9 10 -5 16 20 17 rrcurveto
          0 21 17 52 41 vhcurveto
          -19 -19 12 -17 0 vvcurveto
          -17 13 55 -27 63 hhcurveto
          77 82 28 85 hvcurveto
          159 -322 -8 166 vvcurveto
          121 195 111 103 2 vhcurveto
          67 2 62 -17 -24 -27 rrcurveto
          0 -23 -27 -54 -31 vhcurveto
          11 16 -11 8 0 vvcurveto
          7 -9 -38 14 -49 hhcurveto
          -78 -72 -38 -81 hvcurveto
          -177 323 18 -169 vvcurveto
          -333 656 -92 callgsubr
        </CharString>
        <CharString name="Scedilla">
          -85 callsubr
          5 5 1 1 6 hvcurveto
          -16 -16 -24 -26 -38 -47 -68 callsubr
          45 55 rcurveline
          98 31 149 99 84 vvcurveto
          endchar
        </CharString>
        <CharString name="Scircumflex">
          -72 callgsubr
          -19 588 -104 callgsubr
        </CharString>
        <CharString name="T">
          -51 callsubr
          endchar
        </CharString>
        <CharString name="Tbar">
          -39 callgsubr
          -277 -38 vlineto
          -16 callgsubr
          145 -121 hlineto
          -72 callsubr
          28 2 115 vhcurveto
          65 11 callsubr
          -168 hlineto
          1 70 3 87 3 123 -15 callgsubr
          endchar
        </CharString>
        <CharString name="Tcaron">
          203 620 682 rmoveto
          0 -15 -8 -72 -42 vhcurveto
          22 28 -32 -6 0 vvcurveto
          -13 -3 -77 -3 -91 -2 rrcurveto
          -11 -434 0 -59 -59 callsubr
          0 -62 -39 -38 vhcurveto
          -1 12 11 0 11 hhcurveto
          61 38 13 2 5 hvcurveto
          -47 -69 -15 -20 -47 -31 -20 4 -22 hhcurveto
          -11 -11 -1 -3 -14 hvcurveto
          37 31 24 39 105 vvcurveto
          468 vlineto
          -114 -3 -110 -2 -16 -2 -36 -4 6 19 30 22 67 48 rcurveline
          -19 -23 41 -26 callgsubr
          41 422 10 2 41 hvcurveto
          41 2 -9 -22 -16 -8 rrcurveto
          -189 -614 -48 callsubr
          -282 809 -92 callgsubr
        </CharString>
        <CharString name="Tcommaaccent">
          -51 callsubr
          -120 -148 -96 callsubr
        </CharString>
        <CharString name="Thorn">
          144 114 661 rmoveto
          -23 0 -32 -1 -37 vhcurveto
          -87 -52 20 1 32 3 35 4 rlinecurve
          -2 -113 -2 -129 -58 callgsubr
          7 50 7 367 vhcurveto
          3 37 34 2 24 hhcurveto
          66 86 -53 -92 8 hvcurveto
          9 -124 -83 -98 -74 4 31 callgsubr
          21 124 68 13 131 rrcurveto
          118 12 -93 74 -103 hhcurveto
          -51 -50 -10 -2 -54 hvcurveto
          3 175 rlineto
          endchar
        </CharString>
        <CharString name="U">
          369 278 705 rmoveto
          -94 callgsubr
          95 hlineto
          43 39 16 35 61 hvcurveto
          -1 -2 -15 0 callgsubr
          -21 -28 1 5 -36 hvcurveto
          22 17 0 85 0 vvcurveto
          503 vlineto
          26 12 30 20 23 16 rrcurveto
          -92 callsubr
          9 10 0 -1 9 hvcurveto
          -528 vlineto
          -85 -69 -105 -26 callgsubr
          -149 -56 91 92 2 hvcurveto
          0 -1 87 10 333 vhcurveto
          29 12 34 23 26 18 rrcurveto
          504 -653 -48 callsubr
          endchar
        </CharString>
        <CharString name="Uacute">
          369 278 705 rmoveto
          -94 callgsubr
          95 hlineto
          43 39 16 35 61 hvcurveto
          -1 -2 -15 0 callgsubr
          -21 -28 1 5 -36 hvcurveto
          22 17 0 85 0 vvcurveto
          503 vlineto
          26 12 30 20 23 16 rrcurveto
          -92 callsubr
          9 10 0 -1 9 hvcurveto
          -528 vlineto
          -85 -69 -105 -26 callgsubr
          -149 -56 91 92 2 hvcurveto
          0 -1 87 10 333 vhcurveto
          29 12 34 23 26 18 rrcurveto
          504 -653 -48 callsubr
          -143 861 -105 callsubr
        </CharString>
        <CharString name="Ubreve">
          369 278 705 rmoveto
          -94 callgsubr
          95 hlineto
          43 39 16 35 61 hvcurveto
          -1 -2 -15 0 callgsubr
          -21 -28 1 5 -36 hvcurveto
          22 17 0 85 0 vvcurveto
          503 vlineto
          26 12 30 20 23 16 rrcurveto
          -92 callsubr
          9 10 0 -1 9 hvcurveto
          -528 vlineto
          -85 -69 -105 -26 callgsubr
          -149 -56 91 92 2 hvcurveto
          0 -1 87 10 333 vhcurveto
          29 12 34 23 26 18 rrcurveto
          504 -653 -48 callsubr
          -243 820 -95 callgsubr
        </CharString>
        <CharString name="Ucircumflex">
          369 278 705 rmoveto
          -94 callgsubr
          95 hlineto
          43 39 16 35 61 hvcurveto
          -1 -2 -15 0 callgsubr
          -21 -28 1 5 -36 hvcurveto
          22 17 0 85 0 vvcurveto
          503 vlineto
          26 12 30 20 23 16 rrcurveto
          -92 callsubr
          9 10 0 -1 9 hvcurveto
          -528 vlineto
          -85 -69 -105 -26 callgsubr
          -149 -56 91 92 2 hvcurveto
          0 -1 87 10 333 vhcurveto
          29 12 34 23 26 18 rrcurveto
          504 -653 -48 callsubr
          -214 734 -104 callgsubr
        </CharString>
        <CharString name="Udieresis">
          369 278 705 rmoveto
          -94 callgsubr
          95 hlineto
          43 39 16 35 61 hvcurveto
          -1 -2 -15 0 callgsubr
          -21 -28 1 5 -36 hvcurveto
          22 17 0 85 0 vvcurveto
          503 vlineto
          26 12 30 20 23 16 rrcurveto
          -92 callsubr
          9 10 0 -1 9 hvcurveto
          -528 vlineto
          -85 -69 -105 -26 callgsubr
          -149 -56 91 92 2 hvcurveto
          0 -1 87 10 333 vhcurveto
          29 12 34 23 26 18 rrcurveto
          504 -653 -48 callsubr
          -276 780 -78 callsubr
        </CharString>
        <CharString name="Ugrave">
          369 278 705 rmoveto
          -94 callgsubr
          95 hlineto
          43 39 16 35 61 hvcurveto
          -1 -2 -15 0 callgsubr
          -21 -28 1 5 -36 hvcurveto
          22 17 0 85 0 vvcurveto
          503 vlineto
          26 12 30 20 23 16 rrcurveto
          -92 callsubr
          9 10 0 -1 9 hvcurveto
          -528 vlineto
          -85 -69 -105 -26 callgsubr
          -149 -56 91 92 2 hvcurveto
          0 -1 87 10 333 vhcurveto
          29 12 34 23 26 18 rrcurveto
          504 -653 -48 callsubr
          -344 695 -90 callgsubr
        </CharString>
        <CharString name="Uhungarumlaut">
          369 278 705 rmoveto
          -94 callgsubr
          95 hlineto
          43 39 16 35 61 hvcurveto
          -1 -2 -15 0 callgsubr
          -21 -28 1 5 -36 hvcurveto
          22 17 0 85 0 vvcurveto
          503 vlineto
          26 12 30 20 23 16 rrcurveto
          -92 callsubr
          9 10 0 -1 9 hvcurveto
          -528 vlineto
          -85 -69 -105 -26 callgsubr
          -149 -56 91 92 2 hvcurveto
          0 -1 87 10 333 vhcurveto
          29 12 34 23 26 18 rrcurveto
          504 -653 -48 callsubr
          -215 895 -83 callgsubr
        </CharString>
        <CharString name="Umacron">
          369 278 705 rmoveto
          -94 callgsubr
          95 hlineto
          43 39 16 35 61 hvcurveto
          -1 -2 -15 0 callgsubr
          -21 -28 1 5 -36 hvcurveto
          22 17 0 85 0 vvcurveto
          503 vlineto
          26 12 30 20 23 16 rrcurveto
          -92 callsubr
          9 10 0 -1 9 hvcurveto
          -528 vlineto
          -85 -69 -105 -26 callgsubr
          -149 -56 91 92 2 hvcurveto
          0 -1 87 10 333 vhcurveto
          29 12 34 23 26 18 rrcurveto
          504 -653 -48 callsubr
          -444 758 -61 callsubr
        </CharString>
        <CharString name="Uogonek">
          369 752 -2 callsubr
          28 13 26 17 22 hvcurveto
          3 hlineto
          43 38 16 34 61 hvcurveto
          -1 -4 -15 -3 -34 hhcurveto
          -21 -28 1 5 -36 hvcurveto
          22 17 0 85 0 vvcurveto
          503 vlineto
          26 12 30 20 23 16 rrcurveto
          -92 callsubr
          9 10 0 -1 9 hvcurveto
          -528 vlineto
          -85 -69 -105 -26 callgsubr
          -149 -56 91 92 2 hvcurveto
          0 -1 87 10 333 vhcurveto
          29 12 34 23 26 18 rrcurveto
          -94 callgsubr
          69 hlineto
          -37 -25 -31 -35 -56 -29 callsubr
          30 176 -48 callsubr
          0 vmoveto
          -1 0 -1 0 hvcurveto
          endchar
        </CharString>
        <CharString name="Uring">
          369 278 705 rmoveto
          -94 callgsubr
          95 hlineto
          43 39 16 35 61 hvcurveto
          -1 -2 -15 0 callgsubr
          -21 -28 1 5 -36 hvcurveto
          22 17 0 85 0 vvcurveto
          503 vlineto
          26 12 30 20 23 16 rrcurveto
          -92 callsubr
          9 10 0 -1 9 hvcurveto
          -528 vlineto
          -85 -69 -105 -26 callgsubr
          -149 -56 91 92 2 hvcurveto
          0 -1 87 10 333 vhcurveto
          29 12 34 23 26 18 rrcurveto
          504 -653 -48 callsubr
          -296 775 -62 callgsubr
        </CharString>
        <CharString name="Utilde">
          369 278 705 rmoveto
          -94 callgsubr
          95 hlineto
          43 39 16 35 61 hvcurveto
          -1 -2 -15 0 callgsubr
          -21 -28 1 5 -36 hvcurveto
          22 17 0 85 0 vvcurveto
          503 vlineto
          26 12 30 20 23 16 rrcurveto
          -92 callsubr
          9 10 0 -1 9 hvcurveto
          -528 vlineto
          -85 -69 -105 -26 callgsubr
          -149 -56 91 92 2 hvcurveto
          0 -1 87 10 333 vhcurveto
          29 12 34 23 26 18 rrcurveto
          504 -653 -48 callsubr
          -241 798 -91 callsubr
        </CharString>
        <CharString name="V">
          272 235 705 rmoveto
          -92 callsubr
          19 hlineto
          225 -604 -50 143 65 -201 65 65 rcurveline
          19 43 29 41 0 vvcurveto
          27 38 170 288 22 189 31 11 38 26 27 19 rrcurveto
          -3 -12 -13 callsubr
          hhcurveto
          10 10 0 -1 9 hvcurveto
          1 -6 1 -7 -7 vvcurveto
          -156 -114 -220 -89 -151 vhcurveto
          -48 170 -65 167 -83 222 26 13 28 19 22 15 rrcurveto
          endchar
        </CharString>
        <CharString name="W">
          -103 callsubr
          67 79 rcurveline
          endchar
        </CharString>
        <CharString name="Wacute">
          -103 callsubr
          rrcurveto
          49 958 -105 callsubr
        </CharString>
        <CharString name="Wcircumflex">
          -103 callsubr
          rrcurveto
          -23 799 -104 callgsubr
        </CharString>
        <CharString name="Wdieresis">
          -103 callsubr
          rrcurveto
          -84 866 -78 callsubr
        </CharString>
        <CharString name="Wgrave">
          -103 callsubr
          rrcurveto
          -147 791 -90 callgsubr
        </CharString>
        <CharString name="X">
          282 702 46 rmoveto
          0 -13 -3 -30 -15 -18 1 2 -24 vhcurveto
          -232 339 40 55 54 77 95 134 rlinecurve
          42 5 35 14 56 41 rrcurveto
          -6 -18 -48 -5 -42 hhcurveto
          -10 -10 0 1 -9 hvcurveto
          0 -46 2 -71 -62 vhcurveto
          28 4 25 2 19 2 -52 -79 -53 -77 -56 -77 -171 251 rcurveline
          23 10 24 15 30 23 -22 -9 -69 -7 16 callsubr
          -46 2 -69 -65 vhcurveto
          30 5 25 3 20 2 212 -310 rcurveline
          -73 -96 -77 -95 -81 -97 -78 -53 rcurveline
          -2 12 59 2 2 hhcurveto
          47 34 12 35 66 hvcurveto
          0 -17 -4 -35 -17 -22 1 3 -26 vhcurveto
          133 153 47 51 47 59 204 -298 rcurveline
          -10 -11 rlineto
          -2 13 57 2 4 hhcurveto
          45 43 27 22 35 hvcurveto
          endchar
        </CharString>
        <CharString name="Y">
          201 473 55 rmoveto
          -36 callsubr
          22 6 235 vhcurveto
          -44 callsubr
          -61 -31 -15 -44 -55 hvcurveto
          -73 callsubr
          18 -26 54 -84 142 -248 rrcurveto
          -8 -174 0 -43 -27 callgsubr
          endchar
        </CharString>
        <CharString name="Yacute">
          201 473 55 rmoveto
          -36 callsubr
          22 6 235 vhcurveto
          -44 callsubr
          -61 -31 -15 -44 -55 hvcurveto
          -73 callsubr
          18 -26 54 -84 142 -248 rrcurveto
          -8 -174 0 -43 -27 callgsubr
          91 853 -105 callsubr
        </CharString>
        <CharString name="Ycircumflex">
          201 473 55 rmoveto
          -36 callsubr
          22 6 235 vhcurveto
          -44 callsubr
          -61 -31 -15 -44 -55 hvcurveto
          -73 callsubr
          18 -26 54 -84 142 -248 rrcurveto
          -8 -174 0 -43 -27 callgsubr
          33 727 -104 callgsubr
        </CharString>
        <CharString name="Ydieresis">
          201 473 55 rmoveto
          -36 callsubr
          22 6 235 vhcurveto
          -44 callsubr
          -61 -31 -15 -44 -55 hvcurveto
          -73 callsubr
          18 -26 54 -84 142 -248 rrcurveto
          -8 -174 0 -43 -27 callgsubr
          -36 780 -78 callsubr
        </CharString>
        <CharString name="Ygrave">
          201 473 55 rmoveto
          -36 callsubr
          22 6 235 vhcurveto
          -44 callsubr
          -61 -31 -15 -44 -55 hvcurveto
          -73 callsubr
          18 -26 54 -84 142 -248 rrcurveto
          -8 -174 0 -43 -27 callgsubr
          -93 714 -90 callgsubr
        </CharString>
        <CharString name="Z">
          -87 callgsubr
          endchar
        </CharString>
        <CharString name="Zacute">
          -87 callgsubr
          56 551 -105 callsubr
        </CharString>
        <CharString name="Zcaron">
          123 461 399 rmoveto
          -58 -33 -33 -21 -36 -6 rrcurveto
          -2 -10 -16 0 -20 hhcurveto
          -32 -63 -17 -30 0 vvcurveto
          -57 -114 -38 -62 -27 -21 rrcurveto
          3 17 17 1 18 hhcurveto
          59 55 -10 6 53 hvcurveto
          0 92 4 78 20 vhcurveto
          -66 -66 -77 -15 -84 -79 -89 8 -29 hhcurveto
          0 -44 0 -21 -8 vhcurveto
          71 83 111 230 -59 callsubr
          6 13 10 21 vhcurveto
          -37 -1 -41 -3 -36 -7 85 57 rcurveline
          19 16 0 1 17 hvcurveto
          34 72 50 107 37 86 -62 -6 -139 -4 -42 30 callsubr
          -41 2 -49 -17 vhcurveto
          61 77 55 -26 callgsubr
          37 127 -4 95 hhcurveto
          48 40 1 3 17 hvcurveto
          -16 -10 -16 -9 -17 -8 -64 -131 -45 -90 -34 -67 rrcurveto
          102 5 45 7 0 vvcurveto
          -310 478 -92 callgsubr
        </CharString>
        <CharString name="Zdotaccent">
          -87 callgsubr
          -152 442 -63 callgsubr
        </CharString>
        <CharString name="a">
          -106 callsubr
          endchar
        </CharString>
        <CharString name="aacute">
          -106 callsubr
          154 304 -105 callsubr
        </CharString>
        <CharString name="abreve">
          -106 callsubr
          65 242 -95 callgsubr
        </CharString>
        <CharString name="acircumflex">
          -106 callsubr
          97 157 -104 callgsubr
        </CharString>
        <CharString name="acute">
          -156 253 821 -105 callsubr
        </CharString>
        <CharString name="adieresis">
          -106 callsubr
          22 234 -78 callsubr
        </CharString>
        <CharString name="ae">
          -67 callgsubr
          endchar
        </CharString>
        <CharString name="aeacute">
          -67 callgsubr
          152 294 -105 callsubr
        </CharString>
        <CharString name="agrave">
          -106 callsubr
          -35 144 -90 callgsubr
        </CharString>
        <CharString name="amacron">
          -106 callsubr
          -151 185 -61 callsubr
        </CharString>
        <CharString name="ampersand">
          614 924 55 rmoveto
          -7 -14 -19 -7 -25 hhcurveto
          -86 -90 90 76 -72 hvcurveto
          45 61 29 66 62 vvcurveto
          19 -3 22 -9 21 vhcurveto
          8 hlineto
          115 85 31 79 95 hvcurveto
          -40 -54 -77 -9 -75 hhcurveto
          -44 -65 3 11 -80 hvcurveto
          -94 -73 rlineto
          76 12 39 -81 -66 vvcurveto
          -31 -6 -30 -11 -28 vhcurveto
          -36 38 -67 68 -85 87 -94 24 rlinecurve
          -94 23 -26 60 54 vvcurveto
          53 43 69 58 4 vhcurveto
          58 5 80 -19 21 -9 rrcurveto
          0 21 -9 -21 -25 vhcurveto
          62 43 18 14 0 vvcurveto
          19 14 -6 12 -29 10 -40 14 -51 2 -42 -4 -44 -4 -72 -25 -83 -58 rrcurveto
          -50 -34 -26 -50 -51 vvcurveto
          -79 47 -35 57 -24 vhcurveto
          -76 -34 -99 -59 -5 -115 -6 -144 129 -68 95 -2 93 -2 120 64 91 88 81 -83 83 -71 67 5 36 2 49 26 56 44 rrcurveto
          -623 315 rmoveto
          58 -21 87 -106 92 -96 rrcurveto
          -59 -54 -78 -38 -84 hhcurveto
          -105 -117 81 116 54 30 41 26 18 hvcurveto
          0 25 16 69 12 vhcurveto
          742 187 rmoveto
          -3 -3 -3 -2 -3 -2 3 2 3 2 3 3 rrcurveto
          endchar
        </CharString>
        <CharString name="aogonek">
          85 483 -112 -29 callgsubr
          19 6 18 9 16 hvcurveto
          29 3 43 39 33 39 rrcurveto
          0 35 39 12 18 vhcurveto
          38 vlineto
          -99 callgsubr
          -42 4 -29 11 -14 vhcurveto
          -29 -24 -22 -32 -47 -29 callsubr
          -157 435 -83 callsubr
          endchar
        </CharString>
        <CharString name="approxequal">
          50 385 477 -30 callgsubr
          -46 -167 -30 callgsubr
          endchar
        </CharString>
        <CharString name="aring">
          -106 callsubr
          22 213 -62 callgsubr
        </CharString>
        <CharString name="asciicircum">
          1 357 425 rmoveto
          4 -3 1 -2 4 vhcurveto
          -45 78 -26 97 -25 85 -26 -31 -8 11 -30 -26 -19 -72 -75 -126 -48 -65 25 26 62 28 13 26 62 134 rcurveline
          5 -17 4 -17 5 -16 16 -58 15 -60 23 -56 rrcurveto
          -1 16 78 14 20 vvcurveto
          -314 -50 rmoveto
          2 3 3 3 2 4 rrcurveto
          endchar
        </CharString>
        <CharString name="asciitilde">
          57 380 447 -30 callgsubr
          endchar
        </CharString>
        <CharString name="asterisk">
          19 335 460 rmoveto
          -28 14 -26 15 -26 16 59 43 48 42 19 23 rrcurveto
          -12 -17 -21 -1 -19 hhcurveto
          -21 -19 1 -8 -7 hvcurveto
          0 -18 -23 -28 -31 vhcurveto
          9 43 8 47 3 46 -20 -9 -37 -8 -24 -3 rrcurveto
          0 4 -39 1 -54 vhcurveto
          -18 15 -19 16 -17 17 rrcurveto
          1 -1 -59 -65 0 vvcurveto
          29 -28 30 -26 33 -23 -32 -26 -34 -22 -34 -12 2 -15 rcurveline
          38 14 40 22 38 23 -2 -39 -5 -40 -9 -34 12 -3 rcurveline
          5 10 14 37 16 52 24 -15 24 -13 26 -13 7 -3 44 74 6 -4 rrcurveto
          endchar
        </CharString>
        <CharString name="at">
          189 373 83 rmoveto
          78 95 140 131 84 -23 71 -114 -178 -190 -118 -204 -144 67 -55 100 62 81 32 38 37 hvcurveto
          -8 7 rlineto
          -19 -27 -55 -24 -42 hhcurveto
          -61 -90 16 155 148 116 140 129 109 29 -55 -88 -46 -19 -158 -50 -2 hvcurveto
          -6 -4 -6 8 -2 12 1 48 12 183 9 45 -21 -17 rcurveline
          -22 6 -21 -26 callgsubr
          -32 -2 -38 -21 -36 -26 rrcurveto
          -35 -28 -43 -45 -94 vvcurveto
          -1 -96 35 -19 18 1 36 3 43 48 36 58 rrcurveto
          -1 -16 0 -15 -15 vvcurveto
          -39 9 -24 19 vhcurveto
          -15 271 rmoveto
          -2 -18 -2 -19 -1 -19 -18 -77 -25 -35 -4 -5 rrcurveto
          -19 -16 -15 -13 -10 hhcurveto
          -20 -8 34 42 55 12 77 72 11 12 -1 -2 14 hvcurveto
          endchar
        </CharString>
        <CharString name="atilde">
          -106 callsubr
          67 223 -91 callsubr
        </CharString>
        <CharString name="b">
          42 105 -16 rmoveto
          185 128 190 171 44 -9 118 -66 -31 -43 -20 -45 -46 hvcurveto
          0 -39 -39 -36 -60 vhcurveto
          10 127 9 130 134 vvcurveto
          59 -2 50 -5 19 vhcurveto
          25 -6 -15 10 -16 hhcurveto
          -9 -11 -3 -7 -9 hvcurveto
          0 -24 -18 -58 -58 vhcurveto
          25 23 28 -7 0 vvcurveto
          21 -4 8 -39 -74 vvcurveto
          -229 -23 -230 -18 -262 vhcurveto
          -3 19 17 -2 16 hhcurveto
          30 206 rmoveto
          26 101 35 98 42 40 rrcurveto
          9 9 13 7 13 hhcurveto
          59 7 -122 -46 -95 -15 -108 -113 -27 hvcurveto
          0 -37 -6 -51 19 vhcurveto
          endchar
        </CharString>
        <CharString name="backslash">
          39 409 -52 rmoveto
          -244 383 -21 395 -6 39 -44 -73 -48 0 7 -29 rrcurveto
          0 107 -547 249 -168 vhcurveto
          endchar
        </CharString>
        <CharString name="bar">
          -170 189 860 rmoveto
          -49 -71 -52 -17 3 -26 1 -9 -3 -160 -6 -272 rrcurveto
          0 -8 -302 -139 24 callgsubr
          57 503 18 241 hvcurveto
          0 5 38 18 225 vhcurveto
          endchar
        </CharString>
        <CharString name="braceleft">
          -52 384 832 rmoveto
          1 -8 -8 0 -8 hhcurveto
          -159 -59 -149 -178 -17 hvcurveto
          -10 -106 -61 3 0 vvcurveto
          -52 -86 rlineto
          73 -20 47 -34 -57 -61 -22 -58 -62 vvcurveto
          -111 103 -44 55 11 vhcurveto
          14 3 60 77 0 vvcurveto
          -95 -4 -93 38 125 53 17 51 57 vvcurveto
          58 -22 22 -61 18 vhcurveto
          108 24 -24 63 24 147 rrcurveto
          84 14 26 44 85 hhcurveto
          10 53 92 -1 10 hvcurveto
          endchar
        </CharString>
        <CharString name="braceright">
          -54 -29 -130 rmoveto
          -1 8 8 0 8 hhcurveto
          159 59 149 178 17 hvcurveto
          10 106 61 -3 0 vvcurveto
          52 86 rlineto
          -73 20 -47 34 57 61 22 58 62 vvcurveto
          111 -103 44 -55 -11 vhcurveto
          -14 -3 -60 -77 0 vvcurveto
          95 4 93 -38 -125 -53 -17 -51 -57 vvcurveto
          -58 22 -22 61 -18 vhcurveto
          -108 -24 24 -63 -24 -147 rrcurveto
          -84 -14 -26 -44 -85 hhcurveto
          -10 -53 -92 1 -10 hvcurveto
          endchar
        </CharString>
        <CharString name="bracketleft">
          -79 362 843 rmoveto
          0 -96 0 -48 vhcurveto
          -34 -17 -83 -50 0 vvcurveto
          -179 -16 -239 -15 -431 vhcurveto
          -1 -28 -5 -1 -21 -25 rrcurveto
          10 108 0 43 46 47 68 26 hhcurveto
          0 -183 0 -15 23 11 66 15 1 vhcurveto
          3 84 5 144 18 526 rrcurveto
          10 40 0 9 46 54 67 17 hhcurveto
          endchar
        </CharString>
        <CharString name="bracketright">
          -80 -32 -127 rmoveto
          0 96 0 48 vhcurveto
          34 17 83 50 0 vvcurveto
          179 16 239 15 431 vhcurveto
          1 28 5 1 21 25 rrcurveto
          -10 -108 0 -43 -46 -47 -68 -26 hhcurveto
          0 183 0 15 -23 -11 -66 -15 -1 vhcurveto
          -3 -84 -5 -144 -18 -526 rrcurveto
          -10 -40 0 -9 -46 -54 -67 -17 hhcurveto
          endchar
        </CharString>
        <CharString name="breve">
          -135 273 769 -95 callgsubr
        </CharString>
        <CharString name="brokenbar">
          -171 139 323 rmoveto
          -18 -14 -20 -10 -20 -1 rrcurveto
          -1 -45 -7 -262 -127 24 callgsubr
          27 241 23 229 hvcurveto
          -55 70 rmoveto
          23 4 21 10 21 17 15 173 rcurveline
          9 callgsubr
          1 -8 -2 -138 -4 -207 rrcurveto
          endchar
        </CharString>
        <CharString name="bullet">
          -49 203 452 rmoveto
          -126 -88 67 -108 127 88 rlineto
          endchar
        </CharString>
        <CharString name="c">
          -84 callsubr
          endchar
        </CharString>
        <CharString name="cacute">
          -84 callsubr
          69 261 -105 callsubr
        </CharString>
        <CharString name="caron">
          -94 738 vmoveto
          -93 callgsubr
        </CharString>
        <CharString name="ccaron">
          -48 360 471 rmoveto
          0 -13 -18 -62 -42 vhcurveto
          16 14 -17 11 0 vvcurveto
          6 -10 -26 4 -26 hhcurveto
          -22 -21 -3 -7 -12 hvcurveto
          -24 -14 -32 -104 -91 vvcurveto
          -65 18 -106 73 5 vhcurveto
          0 41 4 49 68 vhcurveto
          41 12 rlineto
          -68 -78 -43 -31 0 vvcurveto
          -43 -30 -31 -19 -37 4 rrcurveto
          -31 3 -47 63 103 vvcurveto
          112 42 124 90 63 vhcurveto
          47 33 68 16 39 -2 39 -2 14 -14 -12 -19 rrcurveto
          -287 190 -92 callgsubr
        </CharString>
        <CharString name="ccedilla">
          -51 callgsubr
          10 hlineto
          -16 -16 -25 -26 -45 -55 -68 callsubr
          48 58 rcurveline
          22 7 22 15 28 19 -14 callgsubr
        </CharString>
        <CharString name="ccircumflex">
          -84 callsubr
          24 121 -104 callgsubr
        </CharString>
        <CharString name="cdotaccent">
          -84 callsubr
          -125 171 -63 callgsubr
        </CharString>
        <CharString name="cedilla">
          -224 158 33 rmoveto
          0 -27 -16 -5 -4 vhcurveto
          -17 -13 -18 -10 -79 -96 -68 callsubr
          27 32 -16 -19 68 83 rrcurveto
          endchar
        </CharString>
        <CharString name="cent">
          17 375 571 rmoveto
          12 19 -14 14 -39 2 -19 1 -26 -3 -26 -8 rrcurveto
          1 vlineto
          0 7 38 29 225 vhcurveto
          -34 -71 -32 -17 -1 -26 -15 -166 rcurveline
          -13 -6 -13 -7 -11 -8 -22 callgsubr
          14 -2 14 2 13 5 -22 -232 rcurveline
          1 9 -11 0 0 17 112 21 143 hvcurveto
          14 7 14 10 16 11 -14 callgsubr
        </CharString>
        <CharString name="circumflex">
          -94 314 647 -104 callgsubr
        </CharString>
        <CharString name="colon">
          -131 209 54 -8 callsubr
          14 380 8 callsubr
        </CharString>
        <CharString name="comma">
          -172 186 1 callgsubr
          endchar
        </CharString>
        <CharString name="copyright">
          -4 261 298 rmoveto
          -25 -17 -29 3 0 vvcurveto
          -28 2 -33 19 -5 43 rrcurveto
          45 -5 18 41 51 hhcurveto
          1 38 -1 -12 -13 hvcurveto
          4 -7 rlineto
          28 20 4 4 0 vvcurveto
          -1 hlineto
          16 26 -57 4 -3 hhcurveto
          -64 -62 -48 -70 hvcurveto
          1 -50 33 -34 48 2 rrcurveto
          0 49 2 29 32 vhcurveto
          82 86 rmoveto
          72 1 -42 66 -71 hhcurveto
          -70 -114 -69 -105 -4 hvcurveto
          -71 -2 45 -66 68 hhcurveto
          76 111 69 104 2 hvcurveto
          -137 108 rmoveto
          64 39 -50 -64 -4 hvcurveto
          -87 -3 -52 -49 -59 hhcurveto
          -59 -53 40 74 3 hvcurveto
          78 3 52 58 69 hhcurveto
          endchar
        </CharString>
        <CharString name="currency">
          -85 124 416 13 callsubr
          183 106 rmoveto
          -33 -31 -48 -10 -11 -18 -2 -4 rcurveline
          4 -8 -9 2 -8 hhcurveto
          -14 -14 -4 -6 -13 hvcurveto
          -14 19 -13 19 -12 18 rrcurveto
          1 -58 -42 0 hvcurveto
          13 -20 15 -21 15 -20 rrcurveto
          -11 -18 -7 -21 -21 vvcurveto
          -14 2 -12 5 -10 vhcurveto
          -18 -18 -21 -19 -24 -20 24 13 24 15 23 17 rrcurveto
          -17 13 20 -10 22 hhcurveto
          18 18 5 10 16 hvcurveto
          11 -11 12 -10 13 -9 6 -5 42 49 7 -2 -15 11 -14 13 -14 14 rrcurveto
          7 14 5 16 17 vvcurveto
          20 -7 19 -11 14 vhcurveto
          31 34 24 31 12 19 rrcurveto
          endchar
        </CharString>
        <CharString name="d">
          89 -65 callsubr
          endchar
        </CharString>
        <CharString name="dagger">
          26 394 -28 callsubr
          -8 -302 -139 24 callgsubr
          45 401 23 257 hvcurveto
          54 9 44 31 52 37 rrcurveto
          endchar
        </CharString>
        <CharString name="daggerdbl">
          45 411 -28 callsubr
          -2 -57 -2 -75 vhcurveto
          -17 1 -17 2 -20 6 callsubr
          17 -2 16 -2 15 -1 rrcurveto
          -2 -87 -1 -98 -64 24 callgsubr
          13 115 15 145 hvcurveto
          63 4 48 35 57 40 rrcurveto
          -31 -21 -67 -1 -59 callsubr
          -25 -1 -38 2 vhcurveto
          12 113 12 124 9 102 54 9 46 34 50 35 rrcurveto
          endchar
        </CharString>
        <CharString name="dcaron">
          181 -65 callsubr
          249 228 -96 callsubr
        </CharString>
        <CharString name="dcroat">
          89 -5 callsubr
          55 16 210 14 170 hvcurveto
          17 28 callgsubr
          -115 hlineto
          6 76 6 59 2 21 15 callsubr
          -64 -44 vhcurveto
          28 16 14 -13 23 callgsubr
          -29 -2 -41 -3 -47 vhcurveto
          -49 hlineto
          -16 callgsubr
          151 hlineto
          -7 -97 rlineto
          -73 callgsubr
          -35 395 rmoveto
          1 0 1 1 1 hvcurveto
          -1 -1 0 -1 -1 hhcurveto
          endchar
        </CharString>
        <CharString name="degree">
          -140 231 583 rmoveto
          44 -33 36 -37 -57 -55 -58 -59 -46 33 -29 37 55 57 54 58 vhcurveto
          -134 31 13 callsubr
          endchar
        </CharString>
        <CharString name="dieresis">
          -94 255 729 -78 callsubr
        </CharString>
        <CharString name="divide">
          161 154 18 callgsubr
          -143 98 -45 callsubr
          -17 -246 -45 callsubr
          endchar
        </CharString>
        <CharString name="dollar">
          -5 342 587 rmoveto
          6 16 -24 15 -41 -5 -9 -1 -11 -3 -11 -5 3 17 9 59 23 180 -34 -71 -32 -17 -1 -26 -16 -167 rcurveline
          -47 -30 -43 -45 -41 -104 128 -50 -106 6 callgsubr
          20 26 7 12 26 hvcurveto
          -9 -87 -10 -96 -5 -63 rrcurveto
          1 7 -8 -2 2 hvcurveto
          3 17 118 23 149 vhcurveto
          68 39 66 67 58 91 -129 35 102 vvcurveto
          37 24 1 36 -6 vhcurveto
          0 20 -4 -2 -23 vhcurveto
          70 49 6 17 0 vvcurveto
          endchar
        </CharString>
        <CharString name="dotaccent">
          -273 76 729 -63 callgsubr
        </CharString>
        <CharString name="dotlessi">
          -150 280 -88 callgsubr
          11 40 rcurveline
          endchar
        </CharString>
        <CharString name="dotlessj">
          -182 167 452 -79 callgsubr
          endchar
        </CharString>
        <CharString name="e">
          -98 callgsubr
          endchar
        </CharString>
        <CharString name="eacute">
          -98 callgsubr
          183 292 -105 callsubr
        </CharString>
        <CharString name="ebreve">
          -98 callgsubr
          108 225 -95 callgsubr
        </CharString>
        <CharString name="ecaron">
          -70 312 142 rmoveto
          -68 -78 -53 -41 0 vvcurveto
          -23 -29 -25 -11 -21 hhcurveto
          -71 -12 124 49 131 93 210 150 27 9 -22 -22 -86 -128 -89 -75 -50 hvcurveto
          -11 vlineto
          -49 13 -120 61 9 10 3 7 10 vhcurveto
          0 44 31 56 101 vhcurveto
          -91 234 rmoveto
          -15 18 -39 -6 -18 -37 -13 -26 -19 -51 -6 -63 62 38 85 72 -37 55 rrcurveto
          -184 224 -92 callgsubr
        </CharString>
        <CharString name="ecircumflex">
          -98 callgsubr
          125 150 -104 callgsubr
        </CharString>
        <CharString name="edieresis">
          -98 callgsubr
          67 208 -78 callsubr
        </CharString>
        <CharString name="edotaccent">
          -98 callgsubr
          -19 203 -63 callgsubr
        </CharString>
        <CharString name="egrave">
          -98 callgsubr
          26 127 -90 callgsubr
        </CharString>
        <CharString name="eight">
          156 505 208 rmoveto
          12 77 -82 47 -83 51 rrcurveto
          66 47 80 75 71 vvcurveto
          71 -58 65 -76 -93 -155 -113 -105 -55 33 -37 45 -32 vhcurveto
          -103 -74 -62 -65 6 -100 rrcurveto
          -87 6 96 -56 89 hhcurveto
          120 136 94 126 23 hvcurveto
          -388 9 rmoveto
          61 39 47 52 35 vhcurveto
          94 -62 130 -45 -113 vvcurveto
          -67 -79 -20 -58 -92 -86 64 100 vhcurveto
          297 317 rmoveto
          -59 -33 -47 -45 -35 vhcurveto
          -71 44 -65 47 73 vvcurveto
          60 24 37 65 66 59 -49 -71 vhcurveto
          endchar
        </CharString>
        <CharString name="ellipsis">
          328 196 54 -45 callsubr
          247 hmoveto
          -61 callgsubr
          247 hmoveto
          -61 callgsubr
          endchar
        </CharString>
        <CharString name="emacron">
          -98 callgsubr
          -88 170 -61 callsubr
        </CharString>
        <CharString name="emdash">
          289 14 callgsubr
          493 26 callsubr
        </CharString>
        <CharString name="endash">
          11 callgsubr
        </CharString>
        <CharString name="eng">
          98 449 318 rmoveto
          2 36 3 33 28 vvcurveto
          46 -8 33 -34 10 vhcurveto
          -52 15 -75 -34 -45 -60 rrcurveto
          0 -29 -34 -33 -45 vhcurveto
          1 24 1 25 21 vvcurveto
          25 6 64 -41 -46 -48 -53 -36 -33 vhcurveto
          -49 callsubr
          6 66 2 67 5 67 rlinecurve
          -38 callgsubr
          -3 -49 -22 -399 -7 -76 rrcurveto
          -78 -7 -58 -48 -82 hhcurveto
          -35 -34 7 10 -8 hvcurveto
          0 -13 16 -13 callgsubr
          46 -3 63 22 54 37 54 37 65 52 16 61 27 102 9 184 8 159 rrcurveto
          endchar
        </CharString>
        <CharString name="eogonek">
          -70 270 -112 -29 callgsubr
          20 7 20 10 17 hvcurveto
          16 5 16 10 19 15 rrcurveto
          -9 callgsubr
          54 vlineto
          -86 callgsubr
          -46 10 -112 60 -13 vhcurveto
          -24 -23 -17 -30 -42 -29 callsubr
          -49 542 10 callsubr
        </CharString>
        <CharString name="equal">
          210 186 389 -14 callsubr
          -375 -160 -14 callsubr
          endchar
        </CharString>
        <CharString name="eth">
          4 363 725 rmoveto
          -46 -31 -49 -5 -31 -28 rrcurveto
          26 -32 -32 16 -27 hhcurveto
          0 -55 -10 -41 -37 vhcurveto
          33 1 54 -24 47 -41 -18 -21 -20 -21 -34 -28 rrcurveto
          -1 -1 1 -5 -59 callsubr
          44 16 53 35 vhcurveto
          19 -21 17 -24 13 -26 -24 -11 -29 -20 -40 -27 rrcurveto
          -78 callgsubr
          -5 91 -38 87 -57 67 21 22 rcurveline
          18 20 46 -9 callsubr
          -62 -430 23 callsubr
          5 callgsubr
        </CharString>
        <CharString name="exclam">
          -152 122 136 rmoveto
          5 -2 76 542 1 32 rrcurveto
          18 1 -12 9 -17 hhcurveto
          -16 -61 -53 -28 -44 hvcurveto
          59 5 -4 -41 0 vvcurveto
          -3 -42 -11 -401 -2 -44 rrcurveto
          92 -77 -8 callsubr
          endchar
        </CharString>
        <CharString name="exclamdown">
          -172 123 396 rmoveto
          -5 2 -76 -542 -1 -32 rrcurveto
          -18 -1 12 -9 17 hhcurveto
          16 61 53 28 44 hvcurveto
          -59 -5 4 41 0 vvcurveto
          3 42 11 401 2 44 rrcurveto
          -92 77 rmoveto
          0 32 3 47 -41 vhcurveto
          78 54 rlineto
          -45 41 -15 -26 callgsubr
          -16 -39 -28 -29 -42 hvcurveto
          endchar
        </CharString>
        <CharString name="f">
          -69 469 881 rmoveto
          8 -17 -18 4 -21 hhcurveto
          -48 -57 -22 -52 callsubr
          33 10 30 hhcurveto
          26 45 -12 -37 -24 hvcurveto
          33 callsubr
        </CharString>
        <CharString name="fi">
          189 618 152 rmoveto
          -69 callsubr
          1 34 -21 19 -26 -5 rrcurveto
          -1 -21 -86 -1 -77 hhcurveto
          -45 -41 0 2 -24 hvcurveto
          2 16 25 238 25 47 34 16 rlinecurve
          13 27 27 5 24 hhcurveto
          44 74 -17 -59 -12 -3 -12 -8 -12 hvcurveto
          92 40 -8 55 0 vvcurveto
          52 -15 -55 9 -52 hhcurveto
          -50 -60 -12 -32 -49 hvcurveto
          -82 -54 -38 -72 -24 -203 rrcurveto
          -9 -17 -9 -11 -59 callsubr
          -23 -28 -26 -21 vhcurveto
          20 10 20 4 20 1 rrcurveto
          -5 -1 -4 -5 -58 callsubr
          289 19 230 rrcurveto
          -1 14 195 4 21 hhcurveto
          26 -1 15 -10 -2 -22 rrcurveto
          -2 callgsubr
          11 40 rcurveline
          endchar
        </CharString>
        <CharString name="five">
          83 454 74 rmoveto
          9 101 -86 75 -94 10 rrcurveto
          0 -68 7 -57 -24 vhcurveto
          20 60 10 64 71 vvcurveto
          12 vlineto
          32 1 20 1 0 vvcurveto
          73 1 89 25 47 32 rrcurveto
          0 -29 -7 -98 -42 -54 1 4 -70 vhcurveto
          -93 -59 rlineto
          39 hlineto
          1 -19 1 -18 -17 vvcurveto
          -72 1 -89 -48 -63 vhcurveto
          18 36 44 16 47 hhcurveto
          99 84 -61 -108 -91 -53 -75 -99 -47 -45 13 9 -11 hvcurveto
          0 -17 14 17 19 vhcurveto
          -36 -15 -40 -32 0 vvcurveto
          -41 -31 56 -33 60 -5 125 -11 206 137 12 139 rrcurveto
          endchar
        </CharString>
        <CharString name="fl">
          206 635 -46 callgsubr
          42 5 -30 4 -40 hhcurveto
          -48 -97 -37 -52 callsubr
          73 25 30 hhcurveto
          43 19 -17 -47 -41 callsubr
          endchar
        </CharString>
        <CharString name="florin">
          231 610 881 rmoveto
          8 -17 -18 4 -21 hhcurveto
          -48 -57 -22 -45 -65 hvcurveto
          -81 -57 -40 -71 -24 -208 -30 1 -28 2 -23 2 -36 2 -32 -54 -27 -23 rrcurveto
          42 22 58 -7 0 vvcurveto
          17 -2 25 -2 28 -1 rrcurveto
          -1 -3 0 -3 -3 -58 callsubr
          287 19 230 rrcurveto
          49 45 3 6 16 hvcurveto
          0 34 13 81 57 vhcurveto
          -31 -21 -67 -1 -59 callsubr
          -56 -1 -66 2 vhcurveto
          6 1 7 1 6 vhcurveto
          25 238 31 38 28 25 rrcurveto
          17 20 33 10 30 hhcurveto
          12 13 -2 -3 10 hvcurveto
          0 35 -13 -23 -31 vhcurveto
          33 callsubr
        </CharString>
        <CharString name="four">
          192 606 275 rmoveto
          -49 -25 -56 -6 -73 -1 4 78 7 110 8 99 rrcurveto
          0 8 153 8 42 vhcurveto
          -106 -70 rlineto
          -155 -246 -65 -92 -59 callsubr
          -65 -92 -71 -55 vhcurveto
          9 82 81 1 93 hhcurveto
          35 30 0 1 28 hvcurveto
          -3 -59 -1 -17 -59 callsubr
          -4 -81 -50 -23 vhcurveto
          48 2 58 -26 callgsubr
          57 1 31 22 63 54 rrcurveto
          0 -46 -29 -125 4 vhcurveto
          41 50 3 46 0 vvcurveto
          8 1 13 1 17 vhcurveto
          57 10 52 24 73 52 rrcurveto
          -253 -32 rmoveto
          -54 hlineto
          -76 -79 0 -2 -45 hvcurveto
          94 82 111 156 51 80 rrcurveto
          0 7 10 10 15 vhcurveto
          endchar
        </CharString>
        <CharString name="fraction">
          -26 359 646 -62 callsubr
          endchar
        </CharString>
        <CharString name="g">
          -97 callgsubr
          endchar
        </CharString>
        <CharString name="gbreve">
          -97 callgsubr
          129 230 -95 callgsubr
        </CharString>
        <CharString name="gcircumflex">
          -97 callgsubr
          162 153 -104 callgsubr
        </CharString>
        <CharString name="gcommaaccent">
          -97 callgsubr
          -35 125 -3 callgsubr
        </CharString>
        <CharString name="gdotaccent">
          -97 callgsubr
          10 200 -63 callgsubr
        </CharString>
        <CharString name="germandbls">
          78 492 754 rmoveto
          68 -39 49 -74 -43 -49 -15 -30 -43 vhcurveto
          -80 -57 -41 -69 -24 -204 -16 -28 -22 -25 -28 -23 19 10 22 4 19 1 rrcurveto
          -5 -1 -4 -5 -55 callsubr
          110 135 115 105 44 hvcurveto
          39 92 -3 348 26 237 rrcurveto
          95 10 8 240 149 hhcurveto
          38 31 -25 -59 hvcurveto
          -162 -140 -135 -97 -112 120 -45 -104 6 callgsubr
          80 152 110 87 hvcurveto
          86 -131 44 107 110 160 90 129 vvcurveto
          endchar
        </CharString>
        <CharString name="grave">
          -193 215 659 -90 callgsubr
        </CharString>
        <CharString name="greater">
          23 47 498 rmoveto
          46 -43 110 -117 102 -39 -122 -60 -82 -113 -51 -59 15 -25 rcurveline
          17 42 96 141 179 40 rrcurveto
          10 42 24 43 -59 callsubr
          -145 54 -133 164 vhcurveto
          -66 -70 rlineto
          endchar
        </CharString>
        <CharString name="guillemotleft">
          183 310 113 -31 callsubr
          296 70 -31 callsubr
          endchar
        </CharString>
        <CharString name="guillemotright">
          184 50 391 -30 callsubr
          164 -70 -30 callsubr
          endchar
        </CharString>
        <CharString name="guilsinglleft">
          -47 310 113 -31 callsubr
          66 70 rlineto
          endchar
        </CharString>
        <CharString name="guilsinglright">
          -46 50 391 -30 callsubr
          -66 -70 rlineto
          endchar
        </CharString>
        <CharString name="h">
          -53 callgsubr
          endchar
        </CharString>
        <CharString name="hbar">
          99 165 849 -42 callgsubr
          -23 vlineto
          -36 -3 -37 -61 -32 -6 rrcurveto
          104 hlineto
          -5 -196 -18 -198 -18 -217 78 61 rcurveline
          -60 callgsubr
          5 77 5 79 4 80 rrcurveto
          57 11 callsubr
          -160 hlineto
          1 43 1 44 44 12 callgsubr
          endchar
        </CharString>
        <CharString name="hcircumflex">
          -53 callgsubr
          302 -248 rmoveto
          -25 23 -46 60 -37 44 -64 -44 rcurveline
          -27 -43 -38 -41 -44 -29 13 -9 rcurveline
          28 9 40 32 45 59 27 -31 33 -40 31 -36 39 18 13 18 12 10 rrcurveto
          endchar
        </CharString>
        <CharString name="hungarumlaut">
          -28 253 821 -83 callgsubr
        </CharString>
        <CharString name="hyphen">
          159 156 299 -14 callsubr
          endchar
        </CharString>
        <CharString name="i">
          -150 -41 callgsubr
          endchar
        </CharString>
        <CharString name="iacute">
          -74 callgsubr
          65 613 -105 callsubr
        </CharString>
        <CharString name="ibreve">
          -74 callgsubr
          -3 553 -95 callgsubr
        </CharString>
        <CharString name="icircumflex">
          -150 278 -89 callgsubr
          28 453 -104 callgsubr
        </CharString>
        <CharString name="idieresis">
          -150 236 645 -77 callsubr
          -218 55 -77 callsubr
          142 -438 rmoveto
          -69 callsubr
          -81 callgsubr
          -4 -45 -9 -156 -4 -80 rrcurveto
          -25 -8 -100 38 -5 -11 callsubr
          rrcurveto
          endchar
        </CharString>
        <CharString name="igrave">
          -150 278 -89 callgsubr
          -111 461 -90 callgsubr
        </CharString>
        <CharString name="ij">
          76 -41 callgsubr
          155 -60 -47 callgsubr
        </CharString>
        <CharString name="imacron">
          -74 callgsubr
          -218 496 -61 callsubr
        </CharString>
        <CharString name="infinity">
          177 524 351 rmoveto
          38 2 -27 58 -45 hhcurveto
          -42 -54 -41 -40 -42 hvcurveto
          41 -35 -34 39 -43 hhcurveto
          -42 -106 -63 -91 -57 54 -17 36 49 43 45 41 37 hvcurveto
          -44 34 31 -43 40 hhcurveto
          0 36 -3 80 80 vhcurveto
          19 20 7 20 2 17 rrcurveto
          -381 44 rmoveto
          52 38 -39 -41 33 hvcurveto
          -24 -27 -29 -14 -17 hhcurveto
          -43 -26 40 43 15 4 10 5 8 hvcurveto
          1 4 3 1 3 hhcurveto
          295 -117 rmoveto
          -45 -35 38 40 -34 hvcurveto
          23 24 24 15 21 hhcurveto
          46 25 -43 -45 -4 hvcurveto
          -1 -9 -4 -9 -5 -9 rrcurveto
          -1 -4 -4 0 -4 hhcurveto
          endchar
        </CharString>
        <CharString name="iogonek">
          -150 233 -2 callsubr
          24 9 23 14 20 hvcurveto
          44 -1 83 89 32 33 11 40 rcurveline
          -16 callsubr
          -51 -50 vhcurveto
          10 12 15 7 14 -27 callsubr
          -9 -103 -9 -178 -35 vvcurveto
          -47 4 -28 11 -12 vhcurveto
          -36 -25 -30 -35 -55 -29 callsubr
          -117 927 -3 callsubr
          endchar
        </CharString>
        <CharString name="itilde">
          -74 callgsubr
          -10 526 -91 callsubr
        </CharString>
        <CharString name="j">
          -182 93 812 -47 callgsubr
        </CharString>
        <CharString name="jcircumflex">
          -182 167 452 -79 callgsubr
          128 105 -104 callgsubr
        </CharString>
        <CharString name="k">
          -64 callgsubr
          endchar
        </CharString>
        <CharString name="kcommaaccent">
          -64 callgsubr
          -235 -149 -96 callsubr
        </CharString>
        <CharString name="kgreenlandic">
          57 156 470 rmoveto
          35 -3 -10 -31 callgsubr
          -3 -47 -7 -90 -8 -107 3 32 -21 -252 78 61 rcurveline
          -67 callsubr
          307 -262 9 callsubr
          endchar
        </CharString>
        <CharString name="l">
          -133 -86 callsubr
          endchar
        </CharString>
        <CharString name="lacute">
          -133 -86 callsubr
          92 1015 -105 callsubr
        </CharString>
        <CharString name="lcaron">
          -91 -86 callsubr
          21 537 -96 callsubr
        </CharString>
        <CharString name="lcommaaccent">
          -133 -86 callsubr
          -126 -216 -96 callsubr
        </CharString>
        <CharString name="ldotaccent">
          110 -86 callsubr
          172 220 -45 callsubr
          endchar
        </CharString>
        <CharString name="less">
          23 375 112 rmoveto
          -46 43 -110 117 -102 39 122 60 82 113 51 59 -15 25 rcurveline
          -17 -42 -96 -141 -179 -40 rrcurveto
          -10 -42 -24 -43 -59 callsubr
          145 -54 133 -164 vhcurveto
          66 70 rlineto
          endchar
        </CharString>
        <CharString name="logicalnot">
          206 154 412 rmoveto
          0 -84 -55 -14 -11 vhcurveto
          419 hlineto
          -55 -58 -4 -103 -13 -50 94 67 rcurveline
          76 10 75 59 59 vhcurveto
          endchar
        </CharString>
        <CharString name="lslash">
          -97 346 493 rmoveto
          -54 -19 -51 9 -37 -22 -18 -14 rcurveline
          8 183 10 203 2 29 rrcurveto
          32 3 -18 14 -20 hhcurveto
          -36 -51 -56 -25 -28 hvcurveto
          -6 callgsubr
          -30 -11 -197 -9 -172 hvcurveto
          -33 -23 -34 -22 -37 -17 rrcurveto
          -2 0 -5 0 0 46 12 58 22 hvcurveto
          -13 -228 -3 -71 10 -63 39 -4 rlinecurve
          69 -5 67 95 39 50 9 55 rcurveline
          -18 callgsubr
          36 4 86 4 101 vhcurveto
          28 13 28 15 24 16 rrcurveto
          22 15 60 48 0 vvcurveto
          endchar
        </CharString>
        <CharString name="m">
          336 399 57 rmoveto
          5 59 8 60 5 61 32 112 36 54 20 19 rrcurveto
          9 10 12 5 12 hhcurveto
          19 17 -13 -31 1 hvcurveto
          4 -106 -20 -105 -109 -19 callsubr
          30 rcurveline
          -49 -76 -36 7 0 vvcurveto
          -14 3 -4 19 30 89 15 88 98 vvcurveto
          64 -8 38 -31 8 vhcurveto
          -30 7 -59 -30 -50 -56 rrcurveto
          0 -28 -33 -29 -43 vhcurveto
          1 20 0 20 20 vvcurveto
          54 -10 23 -26 16 vhcurveto
          -37 23 -66 -39 -53 -57 rrcurveto
          0 -27 -30 -28 -46 vhcurveto
          1 22 1 22 19 vvcurveto
          29 -1 24 -4 12 vhcurveto
          -70 callgsubr
          9 vlineto
          29 113 25 45 0 vvcurveto
          43 24 15 21 29 hhcurveto
          28 31 -16 -85 -6 hvcurveto
          0 -2 -84 -25 -269 vhcurveto
          81 71 rlineto
          endchar
        </CharString>
        <CharString name="macron">
          -61 95 714 -61 callsubr
        </CharString>
        <CharString name="minus">
          177 161 299 -14 callsubr
          endchar
        </CharString>
        <CharString name="mu">
          231 606 176 rmoveto
          -79 callsubr
          -65 -6 -65 -3 -48 rlinecurve
          -15 -62 -50 -143 -81 -8 -65 -6 13 140 2 40 rrcurveto
          5 61 9 98 56 vvcurveto
          20 1 37 -31 -40 -57 -63 -30 -31 vhcurveto
          17 21 16 7 -24 callgsubr
          -3 -34 -4 -57 -31 -532 rrcurveto
          30 22 19 15 0 vvcurveto
          19 15 5 6 4 45 rrcurveto
          0 0 24 6 105 vhcurveto
          28 2 42 21 55 54 rrcurveto
          0 41 40 45 61 vhcurveto
          -1 -18 0 -16 -15 vvcurveto
          -80 callsubr
          endchar
        </CharString>
        <CharString name="multiply">
          79 430 417 rmoveto
          -45 -42 -65 -14 -16 -25 rrcurveto
          0 -18 -27 -32 -39 vhcurveto
          -34 44 -32 45 -29 43 rrcurveto
          1 -1 -78 -56 0 vvcurveto
          33 -48 36 -51 39 -48 -39 -42 -48 -48 -64 -55 59 32 58 43 53 47 38 -44 40 -41 43 -32 8 -7 57 66 10 -2 -45 35 -42 43 -39 47 72 72 55 68 24 37 rrcurveto
          endchar
        </CharString>
        <CharString name="n">
          -91 callgsubr
          endchar
        </CharString>
        <CharString name="nacute">
          -91 callgsubr
          372 276 -105 callsubr
        </CharString>
        <CharString name="napostrophe">
          220 83 665 -97 callsubr
          184 -184 rmoveto
          -70 callgsubr
          12 1 15 1 15 vhcurveto
          -38 callgsubr
          -4 -59 -20 -172 -81 -19 callsubr
          37 rcurveline
          -49 -76 -36 -26 callgsubr
          -14 3 -5 20 32 96 19 95 102 vvcurveto
          46 -8 33 -34 10 vhcurveto
          -91 28 -86 -102 -57 -83 rrcurveto
          1 24 1 24 21 vvcurveto
          29 -1 24 -4 12 vhcurveto
          endchar
        </CharString>
        <CharString name="nbspace">
          -158 endchar
        </CharString>
        <CharString name="ncaron">
          128 175 481 rmoveto
          4 -12 1 -24 -29 vvcurveto
          -21 -1 -24 -1 -24 vhcurveto
          57 83 86 102 91 -28 rrcurveto
          34 -10 8 -33 -46 -102 -19 -95 -96 vvcurveto
          -32 5 -20 14 -3 vhcurveto
          0 36 0 49 76 vhcurveto
          -4 -37 -35 -39 -60 -81 -46 5 rlinecurve
          -25 3 -17 24 54 vvcurveto
          81 20 172 4 59 vhcurveto
          39 3 -25 26 -32 hhcurveto
          -18 -20 -8 -19 -20 hvcurveto
          -19 -19 -39 -49 -34 -103 rrcurveto
          -1 -15 -1 -15 -12 vvcurveto
          0 -4 -80 -7 -78 vhcurveto
          -77 -68 rlineto
          15 317 6 82 0 vvcurveto
          44 2 -16 16 -20 hhcurveto
          -16 -19 -11 -15 -16 hvcurveto
          36 33 48 53 46 hhcurveto
          14 11 -7 -17 5 hvcurveto
          -15 188 -92 callgsubr
        </CharString>
        <CharString name="ncommaaccent">
          -91 callgsubr
          111 -539 -96 callsubr
        </CharString>
        <CharString name="nine">
          115 478 304 rmoveto
          108 -39 102 -128 3 vhcurveto
          -96 -1 -160 -124 -135 vvcurveto
          -79 33 -84 93 83 72 50 65 55 vhcurveto
          -2 -181 -32 -122 -171 -3 -70 -2 -16 21 11 38 -42 -21 -56 -40 9 -31 rrcurveto
          -15 4 33 -18 52 hhcurveto
          232 135 245 224 hvcurveto
          -242 162 rmoveto
          98 14 45 -119 10 -92 rrcurveto
          -60 -20 -34 -59 -71 hhcurveto
          -88 -37 77 82 84 40 65 57 8 hvcurveto
          endchar
        </CharString>
        <CharString name="notequal">
          154 464 581 rmoveto
          -19 -26 -63 -11 -10 -9 -11 -47 -17 -49 -22 -50 rrcurveto
          -160 hlineto
          -16 callgsubr
          235 hlineto
          -16 -31 -16 -29 -18 -30 rrcurveto
          -89 hlineto
          -16 callgsubr
          153 hlineto
          -37 -58 -41 -55 -39 -49 26 17 78 71 63 74 rrcurveto
          161 28 callgsubr
          -211 hlineto
          8 11 6 10 6 10 10 17 11 20 11 22 rrcurveto
          66 28 callgsubr
          -134 hlineto
          33 66 31 70 11 56 rrcurveto
          endchar
        </CharString>
        <CharString name="ntilde">
          -91 callgsubr
          249 172 -91 callsubr
        </CharString>
        <CharString name="numbersign">
          170 481 679 rmoveto
          14 callsubr
          -71 hlineto
          16 61 14 60 11 55 rrcurveto
          14 callsubr
          -32 hlineto
          -10 -62 -47 -13 -12 hvcurveto
          102 hlineto
          -10 -43 -8 -39 -7 -38 rrcurveto
          -47 hlineto
          -10 -62 -47 -13 -12 hvcurveto
          122 hlineto
          -5 -41 -3 -43 -2 -49 -2 -106 rcurveline
          34 callsubr
          91 hlineto
          -6 -42 -3 -43 -2 -50 rrcurveto
          -1 -32 0 -34 -38 vvcurveto
          34 callsubr
          37 hlineto
          19 43 57 3 19 hvcurveto
          -100 hlineto
          12 39 11 40 11 41 rrcurveto
          39 hlineto
          19 43 57 3 20 hvcurveto
          -104 hlineto
          16 61 13 60 11 55 rrcurveto
          -246 -356 rmoveto
          11 39 12 40 11 41 rrcurveto
          73 hlineto
          -10 -43 -9 -39 -6 -38 rrcurveto
          endchar
        </CharString>
        <CharString name="o">
          -99 callsubr
          endchar
        </CharString>
        <CharString name="oacute">
          -99 callsubr
          156 422 -105 callsubr
        </CharString>
        <CharString name="obreve">
          -99 callsubr
          68 365 -95 callgsubr
        </CharString>
        <CharString name="ocircumflex">
          -99 callsubr
          78 288 -104 callgsubr
        </CharString>
        <CharString name="odieresis">
          -99 callsubr
          29 343 -78 callsubr
        </CharString>
        <CharString name="oe">
          192 574 32 callgsubr
          -35 -20 -57 -107 -52 -71 callgsubr
          -63 -57 -44 -57 -43 vhcurveto
          80 -12 -47 22 -26 27 callgsubr
          -25 -41 -60 hvcurveto
          -50 callgsubr
          17 18 9 15 28 vhcurveto
          38 21 50 35 36 36 rrcurveto
          -54 7 21 -62 51 hhcurveto
          4 callsubr
          hvcurveto
          -9 callgsubr
          -273 153 23 callsubr
          -65 callgsubr
          70 12 -96 -55 hvcurveto
          182 135 10 callsubr
        </CharString>
        <CharString name="ogonek">
          -200 208 -2 callsubr
          40 27 36 27 26 hvcurveto
          -52 -26 -63 -37 -79 -29 callsubr
          endchar
        </CharString>
        <CharString name="ograve">
          -99 callsubr
          -51 250 -90 callgsubr
        </CharString>
        <CharString name="ohungarumlaut">
          -99 callsubr
          101 445 -83 callgsubr
        </CharString>
        <CharString name="omacron">
          -99 callsubr
          -127 315 -61 callsubr
        </CharString>
        <CharString name="one">
          -116 265 66 rmoveto
          0 -33 -21 -109 4 vhcurveto
          36 19 12 64 0 vvcurveto
          11 63 2 195 56 vvcurveto
          0 0 55 19 31 vhcurveto
          -94 -57 -67 -64 66 37 rlineto
          -2 -293 -16 -79 -59 callsubr
          -15 -78 -46 vhcurveto
          30 -5 31 0 31 3 50 5 27 8 67 57 rrcurveto
          endchar
        </CharString>
        <CharString name="onehalf">
          93 208 397 -39 callsubr
          184 249 -62 callsubr
          45 -522 -33 callgsubr
        </CharString>
        <CharString name="onequarter">
          85 445 -37 callsubr
          -53 448 -62 callsubr
          -184 -249 -39 callsubr
          131 -108 15 callgsubr
        </CharString>
        <CharString name="onesuperior">
          -175 187 397 -39 callsubr
          endchar
        </CharString>
        <CharString name="ordfeminine">
          -40 334 471 rmoveto
          -24 -65 -26 -17 -2 -1 -8 -3 -7 5 -1 16 -2 18 10 150 10 71 2 3 rcurveline
          -1 0 1 -1 hhcurveto
          1 9 2 7 1 6 -20 -16 rcurveline
          -21 6 -20 -1 0 vvcurveto
          -96 -26 -77 -45 -6 -137 rrcurveto
          -94 33 -17 16 1 vhcurveto
          14 1 39 27 41 51 rrcurveto
          0 10 12 11 16 vhcurveto
          -1 -17 -1 -16 -13 vvcurveto
          -39 8 -21 19 -1 vhcurveto
          19 -1 29 26 20 24 rrcurveto
          0 14 13 15 24 vhcurveto
          -117 92 rmoveto
          -22 -60 -24 -35 0 vvcurveto
          -33 -42 -12 5 -9 16 rrcurveto
          -8 13 -6 34 29 vvcurveto
          56 12 72 72 8 13 -1 -2 15 vhcurveto
          endchar
        </CharString>
        <CharString name="ordmasculine">
          -109 262 580 rmoveto
          65 -3 -35 16 -19 hhcurveto
          -94 -63 -143 -82 -48 13 -46 40 11 13 3 8 15 hvcurveto
          83 45 42 77 -3 105 rrcurveto
          -56 -46 rmoveto
          -35 -8 -92 -34 -19 vhcurveto
          -50 -27 -6 80 36 vvcurveto
          39 5 68 29 32 vhcurveto
          43 41 21 -93 -30 vvcurveto
          endchar
        </CharString>
        <CharString name="oslash">
          -60 callsubr
          endchar
        </CharString>
        <CharString name="oslashacute">
          -60 callsubr
          207 303 -105 callsubr
        </CharString>
        <CharString name="otilde">
          -99 callsubr
          71 348 -91 callsubr
        </CharString>
        <CharString name="p">
          81 244 -254 29 callsubr
          hvcurveto
          11 259 167 22 133 199 -5 166 rlinecurve
          17 callsubr
          -64 vhcurveto
          3 73 2 55 16 vvcurveto
          31 19 callsubr
          15 -17 -20 -21 -8 -183 -6 -148 hvcurveto
          -26 -13 -23 -23 -31 -5 callgsubr
          -15 1 -15 hhcurveto
          3 62 rlineto
          13 63 13 48 1 callsubr
        </CharString>
        <CharString name="paragraph">
          371 37 453 rmoveto
          -119 88 -75 92 36 36 12 25 32 vhcurveto
          -7 20 rlineto
          -15 -24 -23 -7 -21 hhcurveto
          -80 -60 95 111 123 89 28 110 hvcurveto
          9 14 -1 17 hhcurveto
          -1 -115 -4 -252 -59 callsubr
          -4 -151 -15 -79 vhcurveto
          -78 -54 rlineto
          85 hlineto
          45 48 24 30 62 hvcurveto
          -6 -25 -11 callgsubr
          -5 -20 -4 -43 -20 callsubr
          9 56 8 464 vhcurveto
          92 -7 57 77 rlineto
          -2 -20 -32 0 -38 hhcurveto
          -132 -200 8 0 hvcurveto
          -142 -9 -140 -108 -142 vvcurveto
          469 188 rmoveto
          -1 -118 -4 -240 -59 callsubr
          -3 -145 -15 -81 vhcurveto
          -1 -11 -18 -2 -27 hhcurveto
          -12 -13 0 1 -15 hvcurveto
          21 27 6 34 -59 callsubr
          9 57 8 473 vhcurveto
          endchar
        </CharString>
        <CharString name="parenleft">
          -17 386 -58 rmoveto
          -181 -110 205 184 5 hvcurveto
          3 111 50 255 273 114 rrcurveto
          -234 -94 -163 -196 -272 vvcurveto
          -285 200 -98 66 44 -9 32 44 56 vhcurveto
          endchar
        </CharString>
        <CharString name="parenright">
          -13 9 735 rmoveto
          181 110 -205 -184 -5 hvcurveto
          -3 -111 -50 -255 -273 -114 rrcurveto
          234 94 163 196 272 vvcurveto
          285 -200 98 -66 -44 9 -32 -44 -56 vhcurveto
          endchar
        </CharString>
        <CharString name="partialdiff">
          38 391 376 rmoveto
          -6 115 -92 197 -134 15 rrcurveto
          0 -55 -10 -41 -37 vhcurveto
          54 1 107 -63 48 -98 -24 -10 -29 -20 -41 -28 rrcurveto
          -81 callsubr
          -66 -16 -176 -98 5 callgsubr
        </CharString>
        <CharString name="percent">
          135 271 529 rmoveto
          50 -22 66 -64 -77 -52 -90 -77 -94 44 -30 34 21 116 39 136 vhcurveto
          -51 -9 rmoveto
          -34 -10 -102 -52 -18 -36 24 73 130 44 6 12 33 27 -47 -50 vhcurveto
          265 -268 35 callsubr
          -77 -53 -90 -76 -26 callsubr
          endchar
        </CharString>
        <CharString name="period">
          -166 196 54 -45 callsubr
          endchar
        </CharString>
        <CharString name="periodcentered">
          -132 217 348 -45 callsubr
          endchar
        </CharString>
        <CharString name="perthousand">
          370 275 529 rmoveto
          50 -22 66 -64 -29 -57 -34 -41 -24 vhcurveto
          -13 -21 -6 -37 -34 vvcurveto
          -94 44 -30 34 21 116 39 136 vhcurveto
          -51 -9 rmoveto
          -34 -10 -102 -52 -18 -36 24 73 130 44 6 12 33 27 -47 -50 vhcurveto
          265 -268 35 callsubr
          -30 -56 -34 -40 -25 vhcurveto
          -13 -22 -6 -37 -33 vvcurveto
          -26 callsubr
          320 -394 35 callsubr
          -30 -56 -34 -40 -25 vhcurveto
          -13 -22 -6 -37 -33 vvcurveto
          -22 callsubr
          endchar
        </CharString>
        <CharString name="plus">
          113 129 18 callgsubr
          -194 201 rmoveto
          -1 -40 -71 -25 -2 -42 -12 -364 rcurveline
          7 33 65 38 1 36 rrcurveto
          endchar
        </CharString>
        <CharString name="plusminus">
          147 319 229 rmoveto
          94 hlineto
          41 27 66 4 39 hvcurveto
          -198 hlineto
          7 197 -6 -38 -66 -25 -2 -40 rlinecurve
          -3 -94 rlineto
          -93 hlineto
          -36 -40 -64 -6 -34 hvcurveto
          200 hlineto
          -6 -200 7 33 65 38 1 36 rlinecurve
          67 -207 rmoveto
          41 27 67 3 39 hvcurveto
          -361 hlineto
          -36 -40 -64 -6 -34 hvcurveto
          endchar
        </CharString>
        <CharString name="q">
          50 472 -226 rmoveto
          -71 -60 -25 27 0 vvcurveto
          -9 9 -3 27 38 vvcurveto
          197 22 296 26 206 vhcurveto
          -14 -11 rlineto
          3 callgsubr
          -56 -29 -35 callsubr
          -151 50 -30 23 3 23 2 62 44 69 86 rrcurveto
          0 22 28 24 36 vhcurveto
          -14 -195 -10 -191 5 -88 rrcurveto
          -26 1 11 -14 23 hhcurveto
          58 61 51 51 30 hvcurveto
          -216 671 rmoveto
          18 30 callgsubr
          30 hvcurveto
          -5 -50 -5 -52 -4 -54 rrcurveto
          -31 -99 -41 -53 -34 callgsubr
          113 33 92 23 137 123 hvcurveto
          endchar
        </CharString>
        <CharString name="question">
          97 464 581 rmoveto
          87 6 -60 72 -89 hhcurveto
          -117 -170 -112 -132 -19 6 -18 14 -13 hvcurveto
          35 -33 70 87 0 vvcurveto
          -33 2 -8 39 2 26 4 68 32 48 75 10 82 11 78 -76 -8 -91 -4 -61 -56 -70 -46 -40 rrcurveto
          -61 -54 -61 -49 -90 vvcurveto
          -14 2 -16 5 -15 vhcurveto
          14 11 74 8 -6 19 rrcurveto
          -9 30 1 38 9 vvcurveto
          10 123 208 67 10 148 rrcurveto
          -183 -527 -8 callsubr
          endchar
        </CharString>
        <CharString name="questiondown">
          88 26 -44 rmoveto
          -87 -6 60 -72 89 hhcurveto
          117 170 112 132 19 -6 18 -14 13 hvcurveto
          -35 33 -70 -87 0 vvcurveto
          33 -2 8 -39 -2 -26 -4 -68 -32 -48 -75 -10 -82 -11 -78 76 8 91 4 61 56 70 46 40 rrcurveto
          61 54 61 49 90 vvcurveto
          14 -2 16 -5 15 vhcurveto
          -14 -11 -74 -8 6 -19 rrcurveto
          9 -30 -1 -38 -9 vvcurveto
          -10 -123 -208 -67 -10 -148 rrcurveto
          183 527 rmoveto
          0 32 3 47 -41 vhcurveto
          78 54 rlineto
          -45 41 -15 -26 callgsubr
          -16 -39 -28 -29 -42 hvcurveto
          endchar
        </CharString>
        <CharString name="quotedbl">
          -32 callgsubr
        </CharString>
        <CharString name="quotedblbase">
          -101 133 96 -57 callsubr
        </CharString>
        <CharString name="quotedblleft">
          -104 174 35 callgsubr
          35 29 21 17 vhcurveto
          -19 -1 -3 77 55 24 1 20 7 vvcurveto
          -11 -14 -11 31 callsubr
          -121 hmoveto
          -12 0 -25 14 26 36 29 21 17 vhcurveto
          -20 -1 -2 90 55 18 0 14 6 vvcurveto
          -11 -14 -11 -16 -9 -14 -17 -23 -21 -100 -2 -28 rrcurveto
          endchar
        </CharString>
        <CharString name="quotedblright">
          -32 callgsubr
        </CharString>
        <CharString name="quoteleft">
          -227 52 35 callgsubr
          34 29 21 17 vhcurveto
          -19 -1 -2 88 55 19 0 15 6 vvcurveto
          -11 -14 -10 31 callsubr
          endchar
        </CharString>
        <CharString name="quoteright">
          -8 callgsubr
        </CharString>
        <CharString name="quotesinglbase">
          -223 133 96 -25 callgsubr
        </CharString>
        <CharString name="quotesingle">
          -8 callgsubr
        </CharString>
        <CharString name="r">
          -66 callsubr
          endchar
        </CharString>
        <CharString name="racute">
          -66 callsubr
          331 465 -105 callsubr
        </CharString>
        <CharString name="rcaron">
          -18 180 271 rmoveto
          0 -6 -92 -8 -131 vhcurveto
          -82 -70 rlineto
          14 133 13 118 117 vvcurveto
          59 -18 28 -27 -14 -17 -7 -15 -19 vhcurveto
          23 25 62 69 32 hhcurveto
          50 1 -66 -33 hvcurveto
          -23 vlineto
          34 57 47 47 63 18 rrcurveto
          8 28 22 -19 34 hhcurveto
          13 14 3 8 18 hvcurveto
          -37 -37 -37 -39 -32 -4 -33 -4 -27 27 -41 -12 -27 -9 -28 -80 -17 -73 rrcurveto
          -58 386 -92 callgsubr
        </CharString>
        <CharString name="rcommaaccent">
          -66 callsubr
          -27 -356 -96 callsubr
        </CharString>
        <CharString name="registered">
          -28 321 595 rmoveto
          58 -42 53 -63 -53 -111 -55 -84 -57 43 -53 62 68 96 68 70 vhcurveto
          -133 -71 rmoveto
          0 -19 -6 -8 4 vhcurveto
          4 117 9 1 7 0 6 -1 rlinecurve
          17 -7 9 -17 -3 -16 rrcurveto
          0 -5 -19 -32 -10 vhcurveto
          55 -51 11 -9 0 vvcurveto
          3 -4 4 -2 3 -2 rrcurveto
          -13 -17 -21 -7 -22 hhcurveto
          -53 -50 32 59 24 8 23 11 18 hvcurveto
          -2 14 9 0 5 hhcurveto
          -2 -116 0 -9 0 vvcurveto
          -11 7 -3 7 18 17 12 10 11 vhcurveto
          4 163 rmoveto
          52 40 -35 -56 -25 -6 -20 -9 -17 hvcurveto
          -9 6 -17 14 -33 30 rrcurveto
          21 13 11 16 13 vvcurveto
          26 -24 13 -25 vhcurveto
          -8 -9 -1 -6 -3 -1 -1 -3 hhcurveto
          0 -16 -1 -17 2 vhcurveto
          -22 -13 8 10 8 7 9 5 rlinecurve
          7 11 23 7 25 hhcurveto
          endchar
        </CharString>
        <CharString name="ring">
          -244 164 701 -62 callgsubr
        </CharString>
        <CharString name="s">
          -75 callsubr
          endchar
        </CharString>
        <CharString name="sacute">
          -75 callsubr
          100 245 -105 callsubr
        </CharString>
        <CharString name="scaron">
          -91 291 487 rmoveto
          0 -5 -17 -68 -49 vhcurveto
          1 23 -20 4 0 vvcurveto
          -21 4 -16 0 -12 -4 rrcurveto
          -6 -2 -3 -11 -15 -107 136 -35 -93 vvcurveto
          -26 -11 -29 -22 -23 vhcurveto
          -38 -39 -50 -47 -47 -19 rrcurveto
          -7 -19 -20 -4 -18 hhcurveto
          -25 -20 7 15 -4 hvcurveto
          -7 24 57 49 20 17 -1 -31 15 -12 35 -2 35 -2 49 16 -1 31 rrcurveto
          -4 109 -133 48 106 vvcurveto
          15 3 14 8 12 vhcurveto
          30 45 82 56 41 5 40 5 25 -15 -6 -16 rrcurveto
          -264 167 -92 callgsubr
        </CharString>
        <CharString name="scedilla">
          -66 callgsubr
          7 7 1 1 8 hvcurveto
          -17 -15 -25 -26 -47 -58 -68 callsubr
          52 63 rcurveline
          2 1 1 1 2 -53 callsubr
          endchar
        </CharString>
        <CharString name="scircumflex">
          -75 callsubr
          60 100 -104 callgsubr
        </CharString>
        <CharString name="section">
          169 117 574 rmoveto
          -30 10 -24 17 -21 vhcurveto
          -40 -37 -27 -43 -46 -164 322 7 -159 vvcurveto
          -35 -18 -30 -11 -10 vhcurveto
          -19 -19 -48 -19 -63 hhcurveto
          -63 -55 27 17 -13 hvcurveto
          -40 callgsubr
          54 2 58 26 66 49 rrcurveto
          66 49 53 39 60 vvcurveto
          35 -14 27 -22 22 vhcurveto
          44 36 32 34 46 7 callgsubr
          82 71 37 79 -40 callsubr
          -68 -1 -42 -22 -79 -53 rrcurveto
          -62 -41 -47 -57 -60 vvcurveto
          321 -317 rmoveto
          -20 -6 -17 -6 -14 vhcurveto
          -92 72 -177 25 131 vvcurveto
          16 3 14 4 12 vhcurveto
          1 0 1 1 1 vhcurveto
          89 -77 184 -24 -121 vvcurveto
          endchar
        </CharString>
        <CharString name="semicolon">
          -136 203 1 callgsubr
          15 420 8 callsubr
        </CharString>
        <CharString name="seven">
          39 442 524 rmoveto
          -7 -20 -25 -3 -26 -75 -74 18 -80 hhcurveto
          -71 -27 -33 -50 -55 hvcurveto
          17 31 31 6 40 62 62 -15 67 hhcurveto
          17 18 1 2 16 hvcurveto
          -19 -41 -21 -88 -69 -200 -55 -162 -35 -115 -94 -82 134 61 98 242 52 161 52 160 28 86 38 42 rrcurveto
          endchar
        </CharString>
        <CharString name="six">
          154 528 700 rmoveto
          7 -7 -15 5 -25 hhcurveto
          -254 -199 -281 -228 14 hvcurveto
          8 -145 72 -47 61 -12 rrcurveto
          126 -25 177 157 132 vvcurveto
          78 -54 64 -84 -79 -86 -37 -62 -59 vhcurveto
          166 9 85 185 185 hhcurveto
          19 43 -2 -33 -17 hvcurveto
          25 19 75 38 -20 21 rrcurveto
          -226 -638 rmoveto
          -93 -12 -72 73 -12 119 rrcurveto
          61 19 43 52 72 hhcurveto
          94 49 -65 -91 -61 -22 -66 -78 -10 hvcurveto
          endchar
        </CharString>
        <CharString name="slash">
          44 405 768 rmoveto
          -44 -58 -67 4 -6 -39 -6 -39 -12 -322 -244 -383 rrcurveto
          274 313 105 524 0 vvcurveto
          endchar
        </CharString>
        <CharString name="space">
          -158 endchar
        </CharString>
        <CharString name="sterling">
          143 375 370 rmoveto
          12 callsubr
          -26 hlineto
          1 47 0 54 62 vvcurveto
          84 56 64 90 41 20 -35 callgsubr
          -52 17 -67 -2 rrcurveto
          -53 -37 -23 -53 -79 hvcurveto
          -74 -49 -35 -67 -4 -138 -9 -24 -22 -41 -53 -46 rrcurveto
          13 17 37 4 30 hhcurveto
          -113 -43 callgsubr
          7 30 123 1 85 hhcurveto
          75 hlineto
          46 3 callsubr
          -45 -13 -179 hhcurveto
          -31 -34 0 1 -39 hvcurveto
          31 30 -37 callgsubr
          2 50 1 88 vhcurveto
          40 7 63 18 72 58 rrcurveto
          -345 -105 rmoveto
          3 2 rlineto
          467 -195 -48 callsubr
          endchar
        </CharString>
        <CharString name="t">
          -77 -68 callgsubr
          endchar
        </CharString>
        <CharString name="tbar">
          -77 -12 callsubr
          0 26 5 95 vhcurveto
          45 11 callsubr
          -146 hlineto
          5 87 37 4 71 15 83 66 rlinecurve
          -21 callgsubr
          -31 -40 -36 rlinecurve
          15 10 29 4 26 2 -6 -86 rcurveline
          -13 hlineto
          -16 callgsubr
          117 hlineto
          -3 -57 -1 -58 -60 -1 callgsubr
          10 50 rcurveline
          endchar
        </CharString>
        <CharString name="tcaron">
          15 -68 callgsubr
          393 247 -96 callsubr
        </CharString>
        <CharString name="tcommaaccent">
          -77 -68 callgsubr
          141 -506 -96 callsubr
        </CharString>
        <CharString name="thorn">
          70 231 -249 29 callsubr
          18 5 104 6 137 hvcurveto
          39 3 55 15 83 71 95 81 26 118 -3 99 17 callsubr
          -65 vhcurveto
          10 248 10 240 27 vvcurveto
          32 19 callsubr
          14 -17 -20 -23 -18 -446 -11 -255 hvcurveto
          -26 -13 -23 -22 -30 -5 callgsubr
          -16 1 -14 hhcurveto
          2 59 rlineto
          14 65 13 49 1 callsubr
        </CharString>
        <CharString name="three">
          96 471 519 rmoveto
          -3 -44 -38 -1 -28 -40 -40 5 -47 hhcurveto
          -72 -28 -25 -53 -58 hvcurveto
          16 24 32 4 35 46 45 -8 54 hhcurveto
          16 hlineto
          -48 -58 -101 -138 -49 -34 rrcurveto
          5 15 24 6 28 hhcurveto
          97 85 -87 -100 -112 -88 -75 -117 4 hvcurveto
          -59 2 -27 19 4 37 -31 -16 -79 -61 31 -15 rrcurveto
          -7 15 37 -13 50 hhcurveto
          145 198 131 164 108 -90 74 -114 hvcurveto
          -15 hlineto
          84 68 55 101 93 62 rrcurveto
          endchar
        </CharString>
        <CharString name="threequarters">
          101 461 -37 callsubr
          -216 436 -32 callsubr
          163 12 -62 callsubr
          -53 -357 15 callgsubr
        </CharString>
        <CharString name="threesuperior">
          -116 242 634 -32 callsubr
          endchar
        </CharString>
        <CharString name="tilde">
          -102 283 715 -91 callsubr
        </CharString>
        <CharString name="trademark">
          215 560 479 rmoveto
          -5 -5 -17 -3 -3 16 rrcurveto
          -2 17 -7 139 24 vvcurveto
          0 0 22 8 23 vhcurveto
          -30 -26 -14 -16 0 vvcurveto
          -12 -55 -44 -42 -29 -46 -16 45 -22 43 -18 47 rrcurveto
          0 -8 21 5 23 vhcurveto
          -38 -35 -3 -7 0 vvcurveto
          -3 -47 -39 -99 -2 -55 rrcurveto
          -12 2 -6 6 -2 vhcurveto
          14 -6 15 16 26 34 -14 -11 -11 3 -2 3 -2 3 4 24 7 35 rrcurveto
          0 7 27 9 36 vhcurveto
          29 -68 19 -45 5 -19 rrcurveto
          0 4 -15 -2 -22 vhcurveto
          40 44 4 50 36 45 31 42 rlinecurve
          6 -126 0 -3 -3 vvcurveto
          -24 2 -19 14 -2 vhcurveto
          17 -3 18 16 15 24 rrcurveto
          -351 -7 rmoveto
          0 -13 -5 -12 -5 -6 1 3 -4 vhcurveto
          12 188 rlineto
          1 1 1 2 hhcurveto
          36 4 9 1 2 -3 -2 -7 rlinecurve
          12 4 46 28 -15 6 rrcurveto
          8 -20 -83 -16 -34 hhcurveto
          -20 -10 2 3 -5 hvcurveto
          0 -6 5 9 8 vhcurveto
          -58 -29 11 -15 0 vvcurveto
          -6 6 11 -2 18 hhcurveto
          15 16 1 1 17 hvcurveto
          -10 -187 -1 25 callsubr
          -16 -2 10 -5 8 hhcurveto
          26 25 19 19 13 hvcurveto
          endchar
        </CharString>
        <CharString name="two">
          78 425 82 rmoveto
          -18 -26 -66 -1 -73 -37 -36 1 -53 hhcurveto
          -20 hlineto
          75 236 243 91 28 callsubr
          56 -34 57 -63 -53 -64 -31 -30 -44 vhcurveto
          -66 -44 -34 -52 -40 vvcurveto
          -40 35 -35 19 8 vhcurveto
          0 19 7 65 48 vhcurveto
          -38 -9 -13 35 38 vvcurveto
          33 10 35 14 8 vhcurveto
          8 13 22 4 23 hhcurveto
          64 38 -35 -68 -122 -140 -135 -73 -94 hvcurveto
          0 -60 -79 -65 -121 vhcurveto
          31 48 2 0 hvcurveto
          47 1 71 -6 62 1 61 2 57 44 41 37 rrcurveto
          endchar
        </CharString>
        <CharString name="twosuperior">
          -122 231 397 -33 callgsubr
        </CharString>
        <CharString name="u">
          -107 callgsubr
          endchar
        </CharString>
        <CharString name="uacute">
          -107 callgsubr
          516 309 -105 callsubr
        </CharString>
        <CharString name="ubreve">
          -107 callgsubr
          411 247 -95 callgsubr
        </CharString>
        <CharString name="ucircumflex">
          -107 callgsubr
          440 176 -104 callgsubr
        </CharString>
        <CharString name="udieresis">
          -107 callgsubr
          389 236 -78 callsubr
        </CharString>
        <CharString name="ugrave">
          -107 callgsubr
          313 142 -90 callgsubr
        </CharString>
        <CharString name="uhungarumlaut">
          -107 callgsubr
          449 323 -83 callgsubr
        </CharString>
        <CharString name="umacron">
          -107 callgsubr
          208 206 -61 callsubr
        </CharString>
        <CharString name="underscore">
          157 148 -109 -14 callsubr
          endchar
        </CharString>
        <CharString name="uni00AD">
          11 callgsubr
        </CharString>
        <CharString name="uni0312">
          -227 61 539 -3 callgsubr
        </CharString>
        <CharString name="uni0315">
          -316 83 665 -96 callsubr
        </CharString>
        <CharString name="uni0326">
          -223 124 -120 -96 callsubr
        </CharString>
        <CharString name="uogonek">
          534 -107 -29 callgsubr
          18 5 17 8 15 hvcurveto
          33 6 42 39 18 17 rrcurveto
          0 20 19 61 54 vhcurveto
          41 vlineto
          -98 callsubr
          -39 -55 -60 -31 -32 vhcurveto
          16 20 15 6 -89 callsubr
          -58 6 -43 14 -18 vhcurveto
          -26 -23 -20 -31 -45 -29 callsubr
          endchar
        </CharString>
        <CharString name="uring">
          -107 callgsubr
          350 211 -62 callgsubr
        </CharString>
        <CharString name="utilde">
          -107 callgsubr
          408 238 -91 callsubr
        </CharString>
        <CharString name="v">
          36 235 59 rmoveto
          64 108 138 165 133 vvcurveto
          18 -3 17 -6 16 vhcurveto
          -83 -64 rlineto
          15 -19 5 -24 -23 vvcurveto
          -86 -72 -113 -60 -91 vhcurveto
          -10 176 -54 156 -20 43 rrcurveto
          20 -10 -11 8 -13 hhcurveto
          -38 -48 -64 -29 -19 hvcurveto
          9 12 10 6 10 hhcurveto
          24 21 -34 -102 35 hvcurveto
          0 49 -144 -3 -175 vhcurveto
          67 93 rlineto
          endchar
        </CharString>
        <CharString name="w">
          -93 callsubr
          67 93 rlineto
          endchar
        </CharString>
        <CharString name="wacute">
          -93 callsubr
          200 773 -105 callsubr
        </CharString>
        <CharString name="wcircumflex">
          -93 callsubr
          150 600 -104 callgsubr
        </CharString>
        <CharString name="wdieresis">
          -93 callsubr
          80 674 -78 callsubr
        </CharString>
        <CharString name="wgrave">
          -93 callsubr
          10 612 -90 callgsubr
        </CharString>
        <CharString name="x">
          80 511 500 rmoveto
          -21 6 -53 2 -77 -57 -31 -24 -34 -43 -34 -48 -16 53 -13 46 -10 24 rrcurveto
          35 -16 -22 14 -24 hhcurveto
          -53 -47 -56 -42 -31 hvcurveto
          16 15 25 16 25 hhcurveto
          16 15 -7 -16 11 hvcurveto
          25 -38 20 -67 21 -69 -30 -49 -25 -45 -15 -25 rrcurveto
          0 -26 -42 -29 -23 vhcurveto
          -7 1 -8 2 -7 2 -72 -72 rcurveline
          -2 24 20 -1 16 hhcurveto
          58 23 15 59 74 hvcurveto
          -1 -2 -21 -8 -40 hhcurveto
          -11 -12 1 1 -14 hvcurveto
          42 34 52 59 26 44 31 -93 37 -87 64 -21 rrcurveto
          0 53 9 72 76 vhcurveto
          -14 -16 -16 -6 -13 hhcurveto
          -70 -50 121 112 -35 hvcurveto
          76 127 18 28 28 4 25 -7 rlinecurve
          0 24 -7 -14 -29 vhcurveto
          49 15 44 73 -14 4 rrcurveto
          endchar
        </CharString>
        <CharString name="y">
          -100 callsubr
          endchar
        </CharString>
        <CharString name="yacute">
          -100 callsubr
          45 204 -105 callsubr
        </CharString>
        <CharString name="ycircumflex">
          -100 callsubr
          -22 82 -104 callgsubr
        </CharString>
        <CharString name="ydieresis">
          -100 callsubr
          -71 137 -78 callsubr
        </CharString>
        <CharString name="yen">
          314 547 336 rmoveto
          -51 -19 -44 -6 -59 callsubr
          -19 -3 -35 vhcurveto
          26 vlineto
          -44 callsubr
          -11 -10 0 1 -9 hvcurveto
          0 -45 2 -72 -62 vhcurveto
          -73 callsubr
          17 -25 51 -79 126 -220 -11 -14 -25 -28 -56 -48 24 17 60 0 26 -1 rrcurveto
          -4 -1 -3 -4 vvcurveto
          -12 -15 -36 -42 -68 -46 30 15 65 -1 18 -1 rrcurveto
          -2 -59 0 -17 -27 callgsubr
          -36 callsubr
          15 1 68 vhcurveto
          39 11 48 21 54 43 rrcurveto
          -51 -19 -44 -6 -59 callsubr
          -16 -3 -28 vhcurveto
          16 1 15 20 vvcurveto
          40 10 52 21 59 47 rrcurveto
          endchar
        </CharString>
        <CharString name="ygrave">
          -100 callsubr
          -132 67 -90 callgsubr
        </CharString>
        <CharString name="z">
          -84 callgsubr
          endchar
        </CharString>
        <CharString name="zacute">
          -84 callgsubr
          94 260 -105 callsubr
        </CharString>
        <CharString name="zcaron">
          -11 396 514 rmoveto
          -48 -35 -50 -52 -13 -29 -8 -19 -20 -38 -23 -42 rrcurveto
          31 hlineto
          30 31 3 14 22 hvcurveto
          -73 -50 -38 -21 -35 -4 -8 -13 rcurveline
          -35 -63 -57 -72 -31 -24 62 -4 91 -22 48 5 rrcurveto
          0 48 6 46 44 vhcurveto
          28 8 rlineto
          -63 -69 -74 -53 -84 hhcurveto
          -69 -67 15 6 -64 hvcurveto
          67 37 31 45 0 vvcurveto
          32 48 27 51 27 50 rrcurveto
          -10 -9 1 -8 hhcurveto
          -13 -11 -2 -4 -9 hvcurveto
          44 42 31 14 14 4 29 52 30 49 39 45 rrcurveto
          -17 -2 -17 3 0 vvcurveto
          7 -44 -55 17 -26 hhcurveto
          0 -26 0 -52 -42 vhcurveto
          58 51 40 50 70 hhcurveto
          67 62 -32 12 65 hvcurveto
          -295 194 -92 callgsubr
        </CharString>
        <CharString name="zdotaccent">
          -84 callgsubr
          -137 151 -63 callgsubr
        </CharString>
        <CharString name="zero">
          207 560 433 rmoveto
          122 -50 158 -155 -4 vhcurveto
          -71 -2 -129 -82 -61 -101 rrcurveto
          -32 -54 -16 -86 -84 vvcurveto
          -110 30 -193 150 90 89 78 71 58 vhcurveto
          48 59 49 87 141 vvcurveto
          -86 -38 rmoveto
          -111 -5 -22 -223 -158 hhcurveto
          -118 -49 140 106 102 21 240 150 126 58 -136 -118 -3 hvcurveto
          endchar
        </CharString>
      <CharString index="0">
        574 167 rmoveto
        -98 callsubr
        -40 -57 -63 -30 -31 vhcurveto
        17 21 16 7 -89 callsubr
        -80 callsubr
        return
      </CharString>
      <CharString index="1">
        -107 callsubr
        endchar
      </CharString>
      <CharString index="2">
        104 429 383 rmoveto
        -101 callgsubr
        28 105 3 127 hhcurveto
        0 73 0 64 60 vhcurveto
        -87 callsubr
        return
      </CharString>
      <CharString index="3">
        rmoveto
        -28 26 -51 67 -42 49 -71 -49 rcurveline
        -30 -48 -43 -46 -49 -32 15 -10 rcurveline
        31 10 45 35 50 66 30 -35 37 -44 34 -40 44 20 15 20 13 11 rrcurveto
        endchar
      </CharString>
      <CharString index="4">
        rmoveto
        -102 callgsubr
        22 20 -4 31 hhcurveto
        47 15 20 47 70 hvcurveto
        return
      </CharString>
      <CharString index="5">
        0 -38 -15 -66 -11 10 callgsubr
        -12 vhcurveto
        39 38 -20 callgsubr
        -88 callsubr
        -493 -43 callgsubr
        3 14 11 1 11 return
      </CharString>
      <CharString index="6">
        -54 callgsubr
        69 0 81 -1 104 vhcurveto
        81 18 callsubr
        25 -74 callsubr
        -104 -24 callsubr
        22 27 -1 29 hhcurveto
        -121 1 -81 -71 vvcurveto
        -54 -28 rlineto
        -1 17 18 -1 19 hhcurveto
        -200 -33 callsubr
        return
      </CharString>
      <CharString index="7">
        -95 295 63 -103 callgsubr
        return
      </CharString>
      <CharString index="8">
        -49 -80 -24 -17 0 vvcurveto
        -24 -16 -15 15 -3 37 -3 36 19 301 16 73 -14 -11 rcurveline
        -31 12 -44 -2 0 vvcurveto
        -53 -1 -56 -30 -35 callsubr
        -150 50 -30 23 2 23 2 62 45 69 85 rrcurveto
        0 28 35 28 44 vhcurveto
        -4 -46 -2 -38 -32 vvcurveto
        return
      </CharString>
      <CharString index="9">
        -70 312 32 callgsubr
        -86 callgsubr
        -49 12 -124 71 4 callsubr
        vhcurveto
        -9 callgsubr
        -91 288 -64 callsubr
        return
      </CharString>
      <CharString index="10">
        52 397 500 rmoveto
        3 callgsubr
        -57 -30 -59 -46 -60 -46 -66 -73 19 callgsubr
        -2 -142 44 -34 25 -2 rrcurveto
        -82 -56 -125 -75 -91 vvcurveto
        -79 91 -52 75 244 74 272 196 36 17 301 16 73 vhcurveto
        -151 -393 rmoveto
        0 21 28 24 36 vhcurveto
        -208 -14 32 -277 -165 hhcurveto
        -71 -109 30 91 76 111 70 60 45 hvcurveto
        30 22 39 36 42 51 rrcurveto
        -5 324 rmoveto
        18 24 -2 -4 30 hvcurveto
        -5 -45 -6 -68 -4 -48 rrcurveto
        -30 -96 -40 -51 0 vvcurveto
        -44 -35 -23 -17 -17 hhcurveto
        -48 -11 109 36 92 24 138 123 hvcurveto
        return
      </CharString>
      <CharString index="11">
        363 733 379 rmoveto
        247 -176 83 -138 -52 callgsubr
        -18 callsubr
        vhcurveto
        -89 -30 -77 callgsubr
        return
      </CharString>
      <CharString index="12">
        rmoveto
        -7 -10 -35 -1 -1 -13 rrcurveto
        -8 -1 -7 -56 -55 hhcurveto
        -46 -36 49 39 -16 25 callgsubr
        -68 -31 -12 vvcurveto
        -1 8 -15 1 -3 vhcurveto
        -37 21 35 -31 45 hhcurveto
        62 100 72 63 29 callgsubr
      </CharString>
      <CharString index="13">
        -92 callsubr
        22 hlineto
        -6 -304 0 -128 0 vvcurveto
        -132 -3 54 -91 164 hhcurveto
        0 126 0 136 111 vhcurveto
        -23 vlineto
        0 0 -69 -30 -11 vhcurveto
        return
      </CharString>
      <CharString index="14">
        28 -26 51 -67 42 -49 71 49 rcurveline
        30 48 43 46 49 32 -15 10 rcurveline
        -31 -10 -45 -35 -50 -66 -30 35 -37 44 -34 40 -44 -20 -15 -20 -13 -11 rrcurveto
        endchar
      </CharString>
      <CharString index="15">
        rmoveto
        -93 callgsubr
      </CharString>
      <CharString index="16">
        128 175 481 rmoveto
        -70 callgsubr
        12 1 15 1 15 vhcurveto
        -38 callgsubr
        -4 -59 -20 -172 -81 -19 callsubr
        37 rcurveline
        -49 -76 -36 -26 callgsubr
        -14 3 -5 20 32 96 19 95 102 vvcurveto
        46 -8 33 -34 10 vhcurveto
        -91 28 -86 -102 -57 -83 rrcurveto
        1 24 1 24 21 vvcurveto
        29 -1 24 -4 12 vhcurveto
        return
      </CharString>
      <CharString index="17">
        rmoveto
        -79 48 -29 42 -38 64 rrcurveto
        0 -69 -41 -5 vvcurveto
        34 -63 51 -53 61 -39 rrcurveto
        14 42 36 11 13 hvcurveto
        endchar
      </CharString>
      <CharString index="18">
        -88 callgsubr
        rrcurveto
        return
      </CharString>
      <CharString index="19">
        152 rmoveto
        -69 callsubr
        -81 callgsubr
        -4 -45 -9 -156 -4 -80 rrcurveto
        -25 -8 -100 38 -5 -11 callsubr
        return
      </CharString>
      <CharString index="20">
        123 461 399 rmoveto
        0 -45 -7 -102 -5 vhcurveto
        34 67 45 90 64 131 17 8 16 9 16 10 rrcurveto
        -3 -17 -40 -1 -48 -95 -127 4 -37 hhcurveto
        0 -55 0 -61 -77 vhcurveto
        49 17 41 -2 0 vvcurveto
        42 -1 139 4 62 6 -37 -86 -50 -107 -34 -72 rrcurveto
        -1 -17 -16 0 -19 hhcurveto
        -85 -57 36 7 41 3 37 1 rlinecurve
        -10 -21 -6 -13 -59 callsubr
        -111 -230 -71 -83 vhcurveto
        21 8 44 -26 callgsubr
        29 89 -8 79 hhcurveto
        84 77 15 66 66 hvcurveto
        -78 -20 -92 -4 0 vvcurveto
        -6 -53 -55 10 -59 hhcurveto
        -18 -17 -1 -3 -17 hvcurveto
        27 21 38 62 57 114 rrcurveto
        0 17 30 32 63 vhcurveto
        20 16 0 2 10 hvcurveto
        36 6 33 21 58 33 rrcurveto
        return
      </CharString>
      <CharString index="21">
        -56 -101 -44 -31 0 vvcurveto
        -7 -10 -10 -3 -9 -71 callgsubr
        -150 -93 -210 -131 return
      </CharString>
      <CharString index="22">
        -76 callsubr
        -199 160 -116 192 vhcurveto
        0 return
      </CharString>
      <CharString index="23">
        -11 396 514 rmoveto
        -12 -65 -62 32 -67 hhcurveto
        -70 -40 -50 -58 -51 hvcurveto
        52 42 26 -26 callgsubr
        26 55 -17 -7 44 hvcurveto
        0 17 -3 17 2 vhcurveto
        -39 -45 -30 -49 -29 -52 -14 -4 -31 -14 -44 -42 rrcurveto
        4 9 11 2 13 8 9 -1 10 hhcurveto
        -27 -50 -27 -51 -32 -48 rrcurveto
        0 -31 -45 -67 -37 vhcurveto
        -6 64 67 -15 69 hhcurveto
        84 74 53 63 69 hvcurveto
        -28 -8 rlineto
        -46 -44 -48 -6 0 vvcurveto
        -48 -5 -91 22 -62 4 31 24 57 72 35 63 8 13 rcurveline
        35 4 38 21 73 50 rrcurveto
        -14 -22 -31 -3 -30 hhcurveto
        -31 hlineto
        23 42 20 38 8 19 13 29 50 52 48 35 rrcurveto
        return
      </CharString>
      <CharString index="24">
        -50 callsubr
        128 hmoveto
        -106 callgsubr
      </CharString>
      <CharString index="25">
        0 -45 -8 -42 -14 -14 1 2 -11 vhcurveto
        19 27 37 62 54 116 119 5 59 8 37 11 78 -259 rcurveline
        -25 -16 rlineto
        return
      </CharString>
      <CharString index="26">
        -38 callsubr
        -31 -18 -54 -54 vhcurveto
        13 12 18 8 15 -27 callsubr
        return
      </CharString>
      <CharString index="27">
        rrcurveto
        0 43 31 68 78 vhcurveto
        -41 -12 rlineto
        -49 -68 -41 -4 0 vvcurveto
        -73 -5 -18 106 65 vvcurveto
        91 32 104 24 14 vhcurveto
        7 12 21 3 22 hhcurveto
        26 26 -4 -6 10 hvcurveto
        0 17 -11 -16 -14 vhcurveto
        62 42 13 18 0 vvcurveto
        return
      </CharString>
      <CharString index="28">
        rmoveto
        -81 callgsubr
        -3 -45 -23 -438 -7 -74 rrcurveto
        -81 -8 -56 -45 -84 hhcurveto
        -35 -33 7 10 -8 hvcurveto
        0 -13 17 -13 callgsubr
        47 -4 62 22 54 37 54 37 55 56 26 57 26 57 20 485 2 43 rrcurveto
        return
      </CharString>
      <CharString index="29">
        -50 callgsubr
        57 119 98 45 34 vhcurveto
        34 45 26 97 -4 102 return
      </CharString>
      <CharString index="30">
        rmoveto
        -216 -135 -80 -92 -92 -205 79 217 217 27 callsubr
        122 114 171 -90 -216 vhcurveto
        return
      </CharString>
      <CharString index="31">
        244 -85 callgsubr
        100 0 125 101 vhcurveto
        -86 -34 -103 -69 callgsubr
        return
      </CharString>
      <CharString index="32">
        458 178 51 rmoveto
        0 -45 -8 -42 vhcurveto
        -2 hlineto
        27 30 54 64 76 114 125 6 58 9 37 13 rrcurveto
        -134 -25 callsubr
        vvcurveto
        2 23 1 106 1 120 56 1 40 6 29 5 callsubr
        92 0 94 -1 68 vhcurveto
        84 18 callsubr
        22 -74 callsubr
        -154 -24 callsubr
        19 25 -1 27 hhcurveto
        -228 -435 -92 -121 -59 callsubr
        -17 -23 -20 -23 vhcurveto
        -6 1 -5 2 -5 2 -89 -51 rcurveline
        -23 callsubr
        152 258 rmoveto
        -16 -16 -1 1 -15 hvcurveto
        52 82 61 102 69 127 rrcurveto
        -137 1 -100 -71 vvcurveto
        -2 -38 -48 -1 -50 hhcurveto
        return
      </CharString>
      <CharString index="33">
        -150 280 -89 callgsubr
        return
      </CharString>
      <CharString index="34">
        -23 2 -14 -1 0 vvcurveto
        -35 -5 -117 -67 -43 -48 rrcurveto
        -39 -42 -32 -118 -95 vvcurveto
        -10 0 -10 1 -10 vhcurveto
        8 -99 39 -15 25 2 25 3 57 47 58 74 rrcurveto
        0 33 43 37 66 vhcurveto
        -2 -44 -1 -39 -32 vvcurveto
        -76 9 -39 20 -2 vhcurveto
        25 -3 29 22 22 18 rrcurveto
        0 23 17 69 59 vhcurveto
        -187 230 rmoveto
        -40 -135 -46 -60 0 vvcurveto
        -49 -38 -22 -20 -17 hhcurveto
        -45 -8 94 32 74 30 176 109 19 28 -2 -7 38 hvcurveto
        return
      </CharString>
      <CharString index="35">
        -85 callsubr
        84 3 213 122 100 vvcurveto
        return
      </CharString>
      <CharString index="36">
        hhcurveto
        -61 -13 120 49 hvcurveto
        11 vlineto
        75 50 128 89 86 vvcurveto
        22 -9 22 -27 return
      </CharString>
      <CharString index="37">
        17 -5 -11 7 -14 hhcurveto
        -46 -48 -53 -36 -33 hvcurveto
        -49 callsubr
        rlineto
        7 78 4 80 0 vvcurveto
        return
      </CharString>
      <CharString index="38">
        -26 callgsubr
        -103 -196 58 245 245 169 61 110 -48 callgsubr
        return
      </CharString>
      <CharString index="39">
        -12 callsubr
        1 44 13 234 vhcurveto
        37 4 71 15 83 66 rrcurveto
        -21 callgsubr
        -32 -41 -36 rlinecurve
        14 11 30 4 27 2 rrcurveto
        -7 -107 -6 -109 -115 -1 callgsubr
        rrcurveto
        -300 304 rmoveto
        3 2 rlineto
        return
      </CharString>
      <CharString index="40">
        126 60 327 rmoveto
        32 14 43 71 43 hhcurveto
        33 29 -41 -80 9 hvcurveto
        -3 0 -2 1 -3 vhcurveto
        -52 -74 -44 -8 -62 -59 rrcurveto
        -34 -32 -18 -45 -37 vvcurveto
        -33 15 -31 39 12 13 2 5 14 vhcurveto
        16 6 55 27 49 68 8 -37 12 -29 12 -13 rrcurveto
        -15 13 15 -7 17 hhcurveto
        4 callsubr
        hvcurveto
        -9 callgsubr
        54 vlineto
        -35 -20 -57 -107 -52 -71 callgsubr
        -66 -59 -49 -59 -43 vhcurveto
        49 -10 -22 51 -45 hhcurveto
        -60 -70 -82 -44 -39 hvcurveto
        76 -192 rmoveto
        49 42 10 3 41 51 rrcurveto
        -12 vlineto
        -82 -24 -69 -16 -31 vhcurveto
        -18 -37 -46 -8 -15 18 rrcurveto
        -12 8 -7 17 21 vvcurveto
        26 11 30 27 23 vhcurveto
        283 253 rmoveto
        37 -55 -85 -72 -62 -38 8 62 8 115 94 -12 rrcurveto
        return
      </CharString>
      <CharString index="41">
        -92 290 487 rmoveto
        6 16 -25 15 -40 -5 -41 -5 -82 -56 -30 -45 rrcurveto
        -8 -12 -3 -14 -15 vvcurveto
        -106 133 -48 4 -109 vhcurveto
        1 -31 -49 -16 -35 2 -35 2 -15 12 1 31 -20 -17 -57 -49 7 2 callsubr
        return
      </CharString>
      <CharString index="42">
        -70 -3 114 52 68 10 88 52 52 vhcurveto
        13 13 16 6 14 hhcurveto
        return
      </CharString>
      <CharString index="43">
        57 163 847 -45 callgsubr
        -67 callsubr
        5 65 rlineto
        9 136 5 163 92 12 callgsubr
        289 -778 9 callsubr
        return
      </CharString>
      <CharString index="44">
        -77 callsubr
        endchar
      </CharString>
      <CharString index="45">
        rmoveto
        40 -30 32 -33 -51 -50 -52 -53 -41 30 -26 33 50 51 48 52 vhcurveto
        -121 28 rmoveto
        44 10 52 -30 -17 -61 rrcurveto
        -2 -9 -8 -1 -7 hhcurveto
        -39 -23 29 55 7 hvcurveto
        endchar
      </CharString>
      <CharString index="46">
        0 -32 -3 -49 41 vhcurveto
        -76 -54 rlineto
        47 -12 callgsubr
        38 28 29 41 hvcurveto
        return
      </CharString>
      <CharString index="47">
        12 197 rlineto
        17 61 19 43 0 vvcurveto
        34 79 31 26 37 4 37 4 26 -28 2 -31 rrcurveto
        4 -110 -18 -110 -122 vvcurveto
        -49 8 -14 26 31 32 35 13 16 vhcurveto
        0 17 13 56 55 vhcurveto
        11 45 rlineto
        -22 -15 -41 -71 -37 hhcurveto
        -27 -4 30 26 hvcurveto
        94 18 94 99 vvcurveto
        47 -17 70 -61 -74 -72 -88 -76 -48 vhcurveto
        return
      </CharString>
      <CharString index="48">
        363 629 802 rmoveto
        -53 -58 -67 4 -12 -39 rrcurveto
        -1 -2 -1 -4 -2 vvcurveto
        5 -26 -26 3 -24 32 callsubr
        -123 62 -89 74 -51 hvcurveto
        -18 -25 -19 -24 -20 -26 23 23 22 22 22 24 rrcurveto
        -30 47 51 -15 44 hhcurveto
        -18 callsubr
        156 -71 91 -87 45 hvcurveto
        35 80 19 51 0 vvcurveto
        -270 -147 rmoveto
        35 41 -9 -19 40 hvcurveto
        -31 -102 -67 -185 -146 -219 rrcurveto
        -61 47 -50 74 107 vvcurveto
        217 27 callsubr
        122 vhcurveto
        285 -306 rmoveto
        -216 -135 -80 -92 -43 -67 17 40 -60 vhcurveto
        127 160 98 181 65 137 rrcurveto
        61 -49 46 -78 -112 vvcurveto
        return
      </CharString>
      <CharString index="49">
        -59 callsubr
        -4 -188 -20 -67 vhcurveto
        -11 callgsubr
        -3 -20 -4 -45 -20 callsubr
        return
      </CharString>
      <CharString index="50">
        -4 callsubr
        -26 -28 vhcurveto
        77 52 10 4 0 vvcurveto
        return
      </CharString>
      <CharString index="51">
        345 715 -17 callsubr
        -5 -269 rlineto
        -15 hlineto
        -16 callgsubr
        121 hlineto
        -3 -159 1 -45 -10 callsubr
        -512 267 rmoveto
        4 31 33 3 38 hhcurveto
        112 208 -73 -241 -163 -109 -138 -180 -35 -57 1 4 -90 hvcurveto
        34 27 4 52 -59 callsubr
        1 27 4 147 vhcurveto
        86 11 callsubr
        -189 hlineto
        endchar
      </CharString>
      <CharString index="52">
        -3 -13 -44 callgsubr
        return
      </CharString>
      <CharString index="53">
        10 4 21 17 -43 -1 rrcurveto
        0 -85 -7 -132 -1 vhcurveto
        return
      </CharString>
      <CharString index="54">
        99 165 849 -45 callgsubr
        -60 callgsubr
        10 142 8 145 150 12 callgsubr
        return
      </CharString>
      <CharString index="55">
        -23 callgsubr
        -205 171 -109 117 return
      </CharString>
      <CharString index="56">
        -48 360 471 rmoveto
        12 19 -14 14 -39 2 -39 2 -68 -16 -47 -33 -22 callgsubr
        return
      </CharString>
      <CharString index="57">
        -34 callsubr
        -44 14 -113 66 return
      </CharString>
      <CharString index="58">
        12 10 -26 31 -139 hhcurveto
        -93 -138 -58 -29 -52 hvcurveto
        return
      </CharString>
      <CharString index="59">
        125 47 -32 -24 -18 hvcurveto
        56 22 29 38 0 vvcurveto
        return
      </CharString>
      <CharString index="60">
        rmoveto
        0 -2 -68 -26 -50 vhcurveto
        76 46 17 39 -59 callsubr
        16 39 -1 63 vhcurveto
        -6 -429 -79 callgsubr
        endchar
      </CharString>
      <CharString index="61">
        183 rmoveto
        -18 callgsubr
        2 106 25 544 3 49 rrcurveto
        return
      </CharString>
      <CharString index="62">
        -42 callgsubr
        -226 -21 -226 -21 -252 vhcurveto
        78 61 return
      </CharString>
      <CharString index="63">
        -103 0 callgsubr
        0 return
      </CharString>
      <CharString index="64">
        vlineto
        -106 -24 -38 37 callsubr
        return
      </CharString>
      <CharString index="65">
        rmoveto
        35 -3 -17 -31 callgsubr
        6 -56 -81 vvcurveto
        return
      </CharString>
      <CharString index="66">
        279 152 rmoveto
        -16 callsubr
        -52 -51 vhcurveto
        11 12 16 7 14 -27 callsubr
        -2 callgsubr
        rrcurveto
        -152 691 -3 callsubr
        return
      </CharString>
      <CharString index="67">
        0 -12 17 19 19 vhcurveto
        -52 -41 -21 -17 0 vvcurveto
        -20 -17 5 -16 9 -10 16 -16 77 -28 53 2 return
      </CharString>
      <CharString index="68">
        203 620 682 rmoveto
        16 8 9 22 -41 -2 rrcurveto
        -2 -41 -422 -10 -41 hhcurveto
        0 -41 0 19 23 vhcurveto
        -67 -48 -30 -22 -6 -19 36 4 rlinecurve
        16 2 110 2 114 3 rrcurveto
        return
      </CharString>
      <CharString index="69">
        34 103 39 49 19 19 rrcurveto
        19 20 20 8 18 hhcurveto
        32 25 -26 -39 -3 hvcurveto
        return
      </CharString>
      <CharString index="70">
        0 62 -59 callsubr
        return
      </CharString>
      <CharString index="71">
        350 282 727 rmoveto
        -19 callgsubr
        29 -15 callsubr
        -277 vlineto
        -15 -10 -14 -11 -14 -13 14 5 14 4 15 3 rrcurveto
        return
      </CharString>
      <CharString index="72">
        -14 -7 9 vhcurveto
        0 11 -8 -11 -16 vhcurveto
        54 31 23 27 0 vvcurveto
        24 27 return
      </CharString>
      <CharString index="73">
        0 vvcurveto
        -44 -34 -24 -17 -17 hhcurveto
        -47 -11 return
      </CharString>
      <CharString index="74">
        rmoveto
        -6 -12 -37 0 -61 hhcurveto
        26 47 25 36 33 41 rrcurveto
        19 24 11 25 23 vvcurveto
        26 -16 26 -30 -39 -70 -38 -47 -24 12 -12 16 14 16 9 18 14 vhcurveto
        -10 2 -11 18 9 vvcurveto
        16 5 20 19 18 12 -8 -21 -37 -35 -47 -45 -57 vhcurveto
        0 -16 -20 -41 -72 vhcurveto
        38 1 38 -4 39 2 26 1 32 31 10 18 rrcurveto
        endchar
      </CharString>
      <CharString index="75">
        -113 142 681 -57 callsubr
      </CharString>
      <CharString index="76">
        14 -19 hhcurveto
        -35 -58 -62 -24 -27 hvcurveto
        45 39 22 -20 0 vvcurveto
        13 -13 return
      </CharString>
      <CharString index="77">
        rmoveto
        -23 -5 -28 -24 -12 -30 -44 49 -43 hhcurveto
        -91 -41 -88 -49 -20 hvcurveto
        26 18 rlineto
        33 68 33 -10 0 vvcurveto
        -4 29 46 -54 47 hhcurveto
        71 34 68 76 21 hvcurveto
        return
      </CharString>
      <CharString index="78">
        rmoveto
        -22 -32 -13 -2 -31 hhcurveto
        -46 -25 26 46 return
      </CharString>
      <CharString index="79">
        13 callgsubr
        14 30 20 return
      </CharString>
      <CharString index="80">
        0 vvcurveto
        -2 -44 -4 -15 -22 -18 rrcurveto
        112 56 12 47 72 hvcurveto
        return
      </CharString>
      <CharString index="81">
        0 0 vvcurveto
        return
      </CharString>
      <CharString index="82">
        rmoveto
        12 0 25 -15 -26 -34 -29 -21 -17 vhcurveto
        19 1 2 -88 -55 -19 0 -15 -6 vvcurveto
        11 14 10 -7 callsubr
        endchar
      </CharString>
      <CharString index="83">
        13 hhcurveto
        22 8 -22 -32 -2 hvcurveto
        return
      </CharString>
      <CharString index="84">
        -131 -250 -132 -274 return
      </CharString>
      <CharString index="85">
        rrcurveto
        -90 -63 -42 -124 -112 vvcurveto
        -103 47 -63 31 -3 vhcurveto
        return
      </CharString>
      <CharString index="86">
        12 callsubr
        -12 10 callgsubr
        -14 hvcurveto
        10 175 -84 -70 -6 -89 -12 -24 -22 return
      </CharString>
      <CharString index="87">
        0 62 0 vvcurveto
        20 callgsubr
        24 14 30 20 return
      </CharString>
      <CharString index="88">
        -8 -21 -70 -5 -46 hhcurveto
        -63 callsubr
        return
      </CharString>
      <CharString index="89">
        -32 -13 -45 -90 -45 hhcurveto
        -25 -20 29 73 1 hvcurveto
        return
      </CharString>
      <CharString index="90">
        hhcurveto
        47 15 20 47 return
      </CharString>
      <CharString index="91">
        -36 -38 -64 -6 -33 hvcurveto
        return
      </CharString>
      <CharString index="92">
        91 2 77 3 13 3 rrcurveto
        0 32 6 -22 -28 vhcurveto
        72 42 15 8 0 vvcurveto
        -189 -614 -48 callsubr
        return
      </CharString>
      <CharString index="93">
        -80 callgsubr
        endchar
      </CharString>
      <CharString index="94">
        11 22 vhcurveto
        -55 -44 -20 -26 0 vvcurveto
        -21 -26 39 -22 46 -4 return
      </CharString>
      <CharString index="95">
        -41 15 -26 callgsubr
        16 return
      </CharString>
      <CharString index="96">
        -43 -29 rlineto
        85 hlineto
        48 51 27 33 68 hvcurveto
        -1 return
      </CharString>
      <CharString index="97">
        rrcurveto
        0 42 2 return
      </CharString>
      <CharString index="98">
        0 53 41 68 78 vhcurveto
        return
      </CharString>
      <CharString index="99">
        -236 141 681 -25 callgsubr
      </CharString>
      <CharString index="100">
        -73 -97 -6 callsubr
        return
      </CharString>
      <CharString index="101">
        10 21 15 5 11 hhcurveto
        22 3 -21 -35 return
      </CharString>
      <CharString index="102">
        -22 rrcurveto
        2 5 11 0 14 14 16 -1 17 hhcurveto
        -5 -108 -5 -101 -12 -106 9 -12 rlinecurve
        8 -13 41 0 35 22 rrcurveto
        0 36 21 47 49 vhcurveto
        -31 314 rmoveto
        -15 return
      </CharString>
      <CharString index="103">
        219 -455 -43 callsubr
        0 8 callgsubr
        return
      </CharString>
      <CharString index="104">
        rmoveto
        -10 0 -20 12 21 27 23 17 14 vhcurveto
        -15 -1 -2 71 44 15 0 12 5 vvcurveto
        -9 -11 -8 -13 -7 -11 -14 -19 -17 -80 -2 -22 rrcurveto
        endchar
      </CharString>
      <CharString index="105">
        -9 -103 -9 -178 -35 vvcurveto
        -65 9 -27 22 -3 -11 callsubr
        return
      </CharString>
      <CharString index="106">
        vvcurveto
        -77 13 -25 25 -9 vhcurveto
        61 -23 95 105 45 37 return
      </CharString>
      <CharString index="107">
        -4 -37 hhcurveto
        return
      </CharString>
      <CharString index="108">
        14 rmoveto
        -4 46 -29 21 -43 8 -80 -72 rcurveline
        37 3 46 -7 8 -44 rrcurveto
        12 -62 -63 -37 0 vvcurveto
        17 -3 66 40 38 53 -5 54 rlinecurve
        return
      </CharString>
      <CharString index="109">
        vhcurveto
        4 42 41 2 40 66 59 -4 42 hhcurveto
        30 23 3 4 19 hvcurveto
        return
      </CharString>
      <CharString index="110">
        -24 12 -43 -1 0 vvcurveto
        -53 -2 return
      </CharString>
      <CharString index="111">
        39 38 -37 callgsubr
        return
      </CharString>
      <CharString index="112">
        -65 callgsubr
        23 21 -14 -19 12 hvcurveto
        15 -23 11 -40 -55 vvcurveto
        endchar
      </CharString>
      <CharString index="113">
        vvcurveto
        -31 -50 -16 -34 2 vhcurveto
        -35 2 -15 12 2 31 -20 -17 -60 -49 6 2 callsubr
        return
      </CharString>
      <CharString index="114">
        169 -323 -18 177 vvcurveto
        return
      </CharString>
      <CharString index="115">
        0 1 1 hvcurveto
        return
      </CharString>
      <CharString index="116">
        0 5 38 18 225 vhcurveto
        -49 -71 -52 -17 3 -26 return
      </CharString>
      <CharString index="117">
        -12 0 1 return
      </CharString>
      <CharString index="118">
        88 14 callgsubr
        292 26 callsubr
      </CharString>
      <CharString index="119">
        vvcurveto
        27 0 21 -1 12 vhcurveto
        return
      </CharString>
      <CharString index="120">
        22 9 24 return
      </CharString>
      <CharString index="121">
        155 21 callgsubr
        return
      </CharString>
      <CharString index="122">
        rmoveto
        -3 -45 -1 -35 -2 -24 rrcurveto
        -66 hlineto
        50 56 4 18 18 30 rrcurveto
        endchar
      </CharString>
      <CharString index="123">
        100 2 28 rrcurveto
        return
      </CharString>
      <CharString index="124">
        1 hvcurveto
        2 return
      </CharString>
      <CharString index="125">
        299 rmoveto
        -36 -40 -64 -6 -34 hvcurveto
        364 hlineto
        42 28 70 40 hhcurveto
        return
      </CharString>
      <CharString index="126">
        -1 -150 return
      </CharString>
      <CharString index="127">
        0 -1 60 12 471 vhcurveto
        22 9 return
      </CharString>
      <CharString index="128">
        299 rmoveto
        -16 callgsubr
        return
      </CharString>
      <CharString index="129">
        hhcurveto
        0 100 0 125 101 vhcurveto
        -86 -34 -103 -26 callgsubr
        return
      </CharString>
      <CharString index="130">
        0 vvcurveto
        9 -10 4 -11 -26 vvcurveto
        return
      </CharString>
      <CharString index="131">
        vvcurveto
        1 15 -11 0 0 return
      </CharString>
      <CharString index="132">
        hvcurveto
        -1 -5 return
      </CharString>
      <CharString index="133">
        -12 callgsubr
        39 28 29 42 hvcurveto
        endchar
      </CharString>
      <CharString index="134">
        hhcurveto
        -30 -35 return
      </CharString>
      <CharString index="135">
        hlineto
        41 24 66 4 39 hvcurveto
        return
      </CharString>
      <CharString index="136">
        1 hvcurveto
        endchar
      </CharString>
      <CharString index="137">
        25 -2 -4 return
      </CharString>
      <CharString index="138">
        -50 -24 rcurveline
        57 -2 47 23 0 vvcurveto
        42 return
      </CharString>
      <CharString index="139">
        196 rmoveto
        return
      </CharString>
      <CharString index="140">
        rrcurveto
        -34 callsubr
        return
      </CharString>
      <CharString index="141">
        16 callgsubr
        endchar
      </CharString>
      <CharString index="142">
        523 rmoveto
        -12 0 -25 15 26 return
      </CharString>
      <CharString index="143">
        36 callsubr
        -3 return
      </CharString>
      <CharString index="144">
        723 rmoveto
        return
      </CharString>
</ttFont>
